<svg xmlns="http://www.w3.org/2000/svg" viewBox="0 0 781 243.18"><defs><style>.cls-1,.cls-10{fill:#1e3e62;}.cls-1,.cls-2,.cls-7,.cls-8,.cls-9{fill-rule:evenodd;}.cls-2{fill:#ff6500;}.cls-3,.cls-9{fill:#0baf8f;}.cls-4{fill:#1a1a1a;}.cls-5{fill:#1d1d1b;}.cls-6{fill:#0b846d;}.cls-7{fill:#fff;}</style></defs><g id="Layer_2" data-name="Layer 2"><g id="Layer_1-2" data-name="Layer 1"><path class="cls-1" d="M111.47,110.65l-.42-.08-3.35-5.89-3.15-4.27-1.93-2.13-3.56-2.85L96.62,93.7l-2.54-1.42-4.87-2.34-3.86-1.32-1.12-.1-.81-.3-3-.31H75.08l-5.58.61-4.37,1.22L59,92.48,55,95.23l-3.86,3.45-2.85,3.15-3.56,5.29-1.21,2.43-1.22,3.15L41,118l-.51,5.08v4.06L41,131.4l.4,1.12.31,1.72,1.72,5,2.54,4.88,1.73,2.54,3.15,3.86,4,3.86,1.32,1H57.4L66,151.52l9.75-5.39,1.73-1.22.31-.4-.21-.51-3.45-.51L70,142.17l-2.54-1.32-1.72-1.22-2.65-2.44-1.82-2.34L60.15,133l-1.22-2.84-.61-3.86v-3.25l.41-2.54.71-2.34L61.06,115l2-2.74,1.53-1.43,2.95-2.23L70,107.32l1.83-.61,3.46-.61,3.65.1,3,.61,2.54,1,2.24,1.22,3,2.43,1.82,1.94,1.63,2.23,1.22,2.54.71,2.24.51,3.25v4.57l-.61,3.66-.61,1.62v.61l.2.21.51-.11,1.12-1,1.52-.92,7.93-5.69,4.45-3.32A34.17,34.17,0,0,0,111.47,110.65Z"/><path class="cls-2" d="M70.11,135.87l.71.71,1,.61,1.73.3,1.52-.1,1.22-.4.71-.41,1.43-1.32,9.55-.1.71-.31.3-.91v-1.22l-.61-.41H78.84l-.5-.4-.41-.92L77,129.87l-1.82-1.11-1.12-.31-1.53.21-1.42.6-1.22,1.12-.71,1.73v1.83l.31,1Zm2.43-3.05.71-.81.41-.2.92.1.91,1-.1,1-.92.61h-.91l-.41-.2-.71-.82Z"/><polygon class="cls-2" points="91.24 128.66 91.44 128.35 91.54 126.42 91.14 125.81 79.66 125.81 79.25 126.11 79.05 126.72 79.15 128.55 79.86 129.16 88.09 129.06 90.73 128.86 91.24 128.66"/><path class="cls-2" d="M75.29,119l-1-1.42-.91-.81-1.63-.61H70.31l-.81.2-1.43.81-1.22,1.43-.5,1.83.2,1.82.71,1.33,1.52,1.32,1.83.5,1.53-.1.91-.4,1.53-1.43.4-.81.61-.51L90,122l.51-.51-.21-1.73-.3-.4-.51-.21-13.72.21Zm-3,2.24-.2.4-.61.51-.71.21-1-.31-.51-.91L69.6,120l.91-.71,1,.2.81,1Z"/><polygon class="cls-2" points="85.95 115.04 85.95 113.72 85.65 113.11 85.14 112.81 79.66 112.81 79.35 113.01 79.15 113.62 79.15 114.84 79.55 115.34 85.65 115.34 85.95 115.04"/><path class="cls-2" d="M103.33,168.89l.3-.61-.1-3.45-.3-.31h-.41l-.81.31-.61.5v2.44l-.31.51-8.33,7.93-1.62,1.21-.82.31-1.42-.2-2.54-2-1.32-.4-1.62.2L82.2,176l-.92,1.12-.3,1.22.1,1.62.61,1.22,1.52,1,1.93.3,1.22-.3.92-.51.91-1,.31-.72.5-.4h2.64l.92-.31,2-1.72ZM86.06,179.56l-.61.61-.71.3-1.12-.4-.61-1v-.51l.3-.61,1-.81.81.1,1,1.12Z"/><path class="cls-2" d="M94.79,189.82l1.53.91,1.83.11.71-.21,1.12-.71,1.11-1.42v-3.05l10.37-9.65.1-1.22-.31-5.69-.1-8.84-.51-.51-.91.31-.61.61.1,14.32-2,2.24-7.11,6.7-.61.11-.81-.31-1.83-.1-1,.41-.91.71-.72,1-.3.82V188l.3.92ZM96,186.37l.72-.82,1.11-.1.41.2.71.92-.1,1.32-1.12.91-1-.1-.72-.61-.2-.51Z"/><path class="cls-2" d="M118.06,188.4l.41-.82-.71-32.41-.41-.4-1,.3-.4.31-.41.71.41,12.9.1,17.88-.61,1-3.76,3.76-3.35.1-1,.51-.81.91-.41,1.22V196l.21.71,1.11,1.42,1.83.71,1.73-.2,1.52-1,.92-1.72v-1.43l-.31-.81.1-.71Zm-7,7.21-.71.81-1.12.41-.91-.61-.31-.71V195l.61-1,.51-.31h.81l1,.81.2.71Z"/><polygon class="cls-2" points="125.58 149.08 125.38 148.57 124.87 148.57 123.75 149.38 123.45 149.79 123.34 150.4 124.16 192.66 123.95 196.53 123.65 198.35 122.43 201.3 121.21 202.93 119.69 204.45 117.76 205.87 114.81 207.19 111.76 207.6 108.82 207.5 106.68 207.19 103.02 205.97 100.48 204.65 97.54 202.72 93.98 199.37 91.14 195.71 89.41 192.77 88.19 189.82 87.68 189.62 84.74 189.72 82.4 189.41 80.88 189.01 77.32 187.48 74.98 185.86 72.95 183.93 71.63 182.3 70.11 179.96 69.39 179.96 68.68 180.27 68.28 180.68 68.28 181.08 69.6 183.42 71.22 185.55 73.66 187.99 76.51 190.02 79.15 191.24 81.08 191.75 86.46 192.36 86.97 192.97 88.6 196.42 89.71 198.25 92.05 201.1 96.22 204.96 99.16 206.89 101.6 208.11 104.04 209.02 106.58 209.63 109.53 209.94 111.86 209.94 115.32 209.43 117.25 208.82 119.69 207.6 121.31 206.48 122.84 204.96 124.26 202.93 125.38 200.59 125.99 198.76 126.6 195.21 126.6 190.33 125.68 160.97 125.58 149.08"/><polygon class="cls-2" points="35.36 145.62 36.68 148.26 38.51 151.31 40.64 154.16 42.47 156.19 45.01 158.63 45.82 158.73 47.75 158.12 48.26 157.71 48.26 157.41 42.77 152.02 40.84 149.48 38.51 145.62 36.07 139.12 35.05 133.63 34.75 130.28 34.54 129.77 34.34 129.77 33.83 130.48 33.43 132.11 33.22 136.68 33.83 141.15 35.36 145.62"/><path class="cls-2" d="M62.49,76.74H61l-1.42.4-1.32,1.22-.61,1.53v1.32l.61,1.52L59.64,84l1.32.41h1.32l.71-.21,1.83-1.52h8.23l6.61.3.61-.71v-.81l-.31-1-.51-.5-1.11-.51-1.22-.2L65.53,79,64,77.24Zm-.11,4.16-.81.82H61L60.25,81v-.71l.91-.91.82.1.51.81Z"/><path class="cls-2" d="M66.75,76l1,.4,1.32.1,1.12-.3,1.62-1.12.61-.2,6.81.1.71.41,6.81,6.3,4.57,4.57,1,.61h.5l1-1.12.3-.71v-1l-.4-.71L80.88,71.66l-.51-.21-1.53-.1-3.35.2-2.64-.1-1.32-1.52L70.41,69l-1-.4H68.07l-1.22.4-.5.31-1.12,1.32-.41,1.42v1.22L65.63,75Zm.82-3.76.6-.72h1l.61.51-.1.92-.92.81-.61-.1-.6-.71Z"/><path class="cls-2" d="M144.68,90.76,145.6,92l26.21-29.87-.2-.72-1.22-.71H170l-.61.51L147.93,85.47l-.3-.5-.41-9.35.1-4.07,9.45-10.26.71-.3.92.2h1.52l1.22-.61.61-.71.41-.81V57l-.21-.61-1.32-1.63-1.32-.71-1.42-.1-1.32.71-.71.61-.71,1.22-.21,2.84L144.27,70.13l-.2,1.53.1,6.8Zm12.6-33.63.71-.71.51-.21.91.1.82,1-.11.81-1,.82L158,58.85l-.81-.91Z"/><path class="cls-2" d="M94.9,56.31l-.61-1.62-.71-.81-1.33-.72-1.11-.3L90,53l-1,.41-1.22,1.22L87.28,56l-.21,1.42.41,1.32,1,1.22,2.94,2.14,12.4,11.17.2.41v4.16l.31,5.8.5.4,2-.1.3-.41V71.25l-.2-.41-6.4-5.58-6-5.8-.1-.5L94.9,58Zm-2.34,1.12-.81.71h-1L90,57.43v-.81l.2-.41.51-.51.51-.2.71.2.71.92Z"/><path class="cls-2" d="M141.53,57.33l.31-1.42-.11-.61-.81-1.73-1.12-.91-1.62-.21-1.12.31L135.74,54l-.61,1.42v1.42l.61,1.22.81.71.71.31.61,1V74.2l.51,11.68.21,10.67.2.81.71.1,1.22-.91.91-1.12-1.11-31.6L140,60.89V59.26Zm-1.62-.91-.61.61-.82.4-.81-.1-.81-1,.2-1,1.12-.81,1.12.2.71.81Z"/><path class="cls-2" d="M115.12,57.43l.5-1.32V54.79l-.2-.81-.51-.82-1-1-1.43-.71h-1.11l-1,.2-.81.41-1.22,1.42L108,54.69l.1,1.22.41,1,.71,1,1.22,1.12-.1,5.59.3,6.19.21,21-.31.4h-.61l-1-.71-8.44-7.52-.2-.51-.2-5.69-.31-.71L86.87,65.36l-.71-.92.1-1.83-.2-.81-.51-1-.71-.72-1.53-.81-1.11-.1-1.32.2L79.76,60l-.71.71-.61,1.73.1,1.73.51,1.22.71.71,1.42.71,1.93.2.61.31L96.32,79l.2.51V85l.41.71,3.35,2.84,7.62,7.32,1,.1,1.32-.71h.51l.2.2.61,9.45v5.79l-.09,0a34.17,34.17,0,0,1-1.25,12.65l2.76-2.06,2.24-2-.1-10.37L113.9,79.07l-.21-14-.3-5.69.1-.4Zm-31.6,6.2-.92.71-.81-.1-.61-.71.1-.92.41-.5.61-.31.71.1.71.92ZM113.08,56l-.3.3-.92.31-.91-.2-.51-.72.2-.91.72-.71,1-.2.81.71.11.91Z"/><path class="cls-2" d="M145.6,60.58l-.61,1-1.53,1.62-.2.51v1.93l.41.81.71-.2,3.76-3.55.5-1-.2-2.24.1-3.65L150,54.59l1-1.93-.1-1.43-.61-1.11-.91-1-.72-.3-1.93-.11-1.11.41-.82.81L144.17,51l-.1,1.42.51,1.43,1.12,1.42.2.61V58Zm1-9.75.81-.41.61.1.82.71.1,1-.81,1-.41.2H147l-1-.81-.1-.82Z"/><polygon class="cls-2" points="128.83 106.91 129.14 107.42 129.64 107.32 132.49 105.08 132.9 104.47 132.49 88.73 132.08 81.31 131.88 69.42 131.07 56.01 131.07 52.96 131.57 49.81 132.18 47.98 132.79 46.66 133.91 45.04 136.04 43.11 137.06 42.5 138.69 41.89 141.23 41.48 144.38 41.48 147.83 41.89 151.9 43.11 155.04 45.14 157.69 47.98 159.62 51.34 160.13 51.74 163.78 51.64 166.02 51.84 168.46 52.35 171.5 53.57 173.33 54.79 176.89 58.04 177.3 58.04 179.02 56.52 178.92 55.91 177.09 53.88 173.44 51.03 170.39 49.2 168.86 48.59 165.61 47.88 160.73 47.78 156.37 43.01 153.93 41.07 150.88 39.35 147.32 38.13 144.38 37.72 141.33 37.72 138.38 38.23 136.55 38.84 134.52 39.85 132.18 41.58 130.66 43.11 129.44 44.83 128.22 47.37 127.61 49.41 127.21 52.35 128.12 76.94 128.83 106.91"/><polygon class="cls-2" points="34.44 115.34 34.85 116.26 35.36 116.06 35.56 115.45 36.17 111.69 37.49 107.12 38.61 104.27 40.34 101.12 42.98 97.56 45.01 95.43 48.67 92.18 50.5 90.86 52.63 89.64 53.44 88.62 53.04 87.1 52.63 83.85 52.83 79.38 53.34 77.14 54.26 74.7 55.37 72.88 56.9 71.15 59.54 68.81 62.18 67.29 65.94 65.86 69.9 65.05 70.61 64.14 72.14 60.28 74.37 56.31 77.22 53.16 79.86 51.13 82.91 49.81 85.35 49.1 89.51 48.69 91.95 48.9 92.56 48.49 93.78 46.76 95.81 44.73 97.94 43.21 99.06 42.6 100.59 42.09 104.55 41.38 107.39 41.48 109.93 42.09 112.88 43.61 115.62 46.26 117.05 48.8 117.55 50.32 117.96 53.27 118.27 58.55 118.37 67.08 118.77 77.35 118.98 89.13 119.38 96.65 119.79 115.14 120.6 115.14 124.06 112.2 124.46 111.69 124.36 103.46 123.75 90.96 123.14 70.34 123.04 58.35 122.73 52.35 122.23 49.2 121.21 46.36 119.89 44.02 118.27 41.99 116.33 40.06 114.3 38.64 111.66 37.31 110.14 36.81 107.39 36.4 104.75 36.4 102.21 36.7 99.98 37.31 97.33 38.53 95.4 39.85 93.17 41.89 90.02 45.44 85.85 45.55 83.21 45.95 80.37 46.87 77.32 48.39 74.98 50.12 71.93 53.37 70.41 55.7 68.68 59.46 68.28 61.09 67.87 61.6 67.46 61.8 65.74 61.8 63.2 62.31 60.86 63.02 58.42 64.34 55.27 66.78 53.44 68.71 51.82 71.15 50.6 73.69 49.78 76.13 49.17 80.19 49.17 83.14 49.78 86.29 49.68 87 45.01 90.56 41.25 94.52 38.41 98.58 36.07 102.95 34.65 107.12 34.14 110.37 34.24 114.13 34.44 115.34"/><polygon class="cls-3" points="157.98 136.43 158.93 136.42 157.97 136.42 157.98 136.43"/><polygon class="cls-3" points="158.93 136.42 157.98 136.43 157.97 136.42 156.6 136.42 174.37 118.13 174.37 119.12 175.35 119.12 175.35 103.92 175.25 103.92 171.59 107.27 161.63 117.13 147.61 129.73 138.57 137.14 131.56 142.43 130.95 143.04 130.75 143.54 130.95 160.41 131.46 160.41 152.39 160.41 152.8 160.41 152.69 148.83 152.62 147.79 157.06 147.79 174.37 147.61 174.37 136.42 158.93 136.42"/><polygon class="cls-3" points="175.35 103.92 175.35 119.18 174.37 119.18 174.37 136.42 174.37 147.57 174.37 164.98 175.35 164.98 189.19 164.98 189.19 119.18 189.19 103.92 175.35 103.92"/><rect class="cls-4" x="194.14" y="80.57" width="2.86" height="107.75"/><rect class="cls-5" x="194.14" y="80.57" width="2.86" height="107.75"/><rect class="cls-6" x="194.14" y="80.57" width="2.86" height="107.75"/><polygon class="cls-7" points="215.39 169.04 197 188.32 197 80.57 215.39 80.57 215.39 169.04"/><polygon class="cls-8" points="215.39 169.04 197 188.32 197 80.57 215.39 80.57 215.39 169.04"/><polygon class="cls-8" points="215.39 169.04 197 188.32 197 80.57 215.39 80.57 215.39 169.04"/><polygon class="cls-8" points="215.39 169.04 197 188.32 197 80.57 215.39 80.57 215.39 169.04"/><polygon class="cls-9" points="215.39 169.04 197 188.32 197 80.57 215.39 80.57 215.39 169.04"/><path class="cls-10" d="M183.83,46.56l.56.43q3.65,2.5,7.31,5c.38.26.52.42.18.88l-1.72,2.27,10.2,10.7c-.54.73-1.09,1.45-1.64,2.17,2-2.12,4.3-4.6,5.86-6.28.44-.47.75-.56,1.3-.15,1.39,1,2.82,2,4.24,3,.78.54,1.56,1.06,2.46,1.67,1.33-11.92,2.64-23.67,4-35.59Z"/><path class="cls-10" d="M190.16,55.12l-.06-.07C153.74,100,80.66,176.87,18.29,169.05c-5.7-.61-13-3.35-18.29-5.28,1.87,2.11,9.1,4.94,11.68,6.4,33.06,14.5,70.56,2,98.25-18.29C142.48,128.94,174.6,99.73,198.72,68c.55-.72,1.1-1.44,1.64-2.17Z"/><path class="cls-10" d="M220.15,43l-2.43,21.77A106.73,106.73,0,0,1,39.34,181.88a82.65,82.65,0,0,1-19.13-2.78,122.21,122.21,0,0,0,21.22,28.47A121.59,121.59,0,0,0,220.15,43Z"/><path class="cls-10" d="M18.38,163.65h.09a68.56,68.56,0,0,0,11,.46A106.71,106.71,0,0,1,191.71,36.43l14.78-7.21A121.67,121.67,0,0,0,12.85,162.52,37.25,37.25,0,0,0,18.38,163.65Z"/><rect class="cls-10" x="169.27" y="157.67" width="0.55" height="3.07"/><rect class="cls-10" x="169.27" y="163.6" width="0.55" height="3.07"/><rect class="cls-10" x="169.27" y="187.83" width="0.55" height="3.07"/><rect class="cls-10" x="169.27" y="181.88" width="0.55" height="3.07"/><rect class="cls-10" x="169.27" y="175.77" width="0.55" height="3.07"/><rect class="cls-10" x="161.67" y="157.67" width="0.55" height="3.07" transform="translate(323.89 318.42) rotate(-180)"/><rect class="cls-10" x="161.67" y="163.6" width="0.55" height="3.07" transform="translate(323.89 330.28) rotate(-180)"/><rect class="cls-10" x="155.29" y="157.67" width="0.55" height="3.07" transform="translate(311.13 318.42) rotate(-180)"/><rect class="cls-10" x="155.29" y="163.6" width="0.55" height="3.07" transform="translate(311.13 330.28) rotate(-180)"/><rect class="cls-10" x="161.67" y="187.83" width="0.55" height="3.07" transform="translate(323.89 378.73) rotate(-180)"/><rect class="cls-10" x="161.67" y="181.88" width="0.55" height="3.07" transform="translate(323.89 366.83) rotate(-180)"/><rect class="cls-10" x="161.67" y="175.77" width="0.55" height="3.07" transform="translate(323.89 354.61) rotate(-180)"/><path class="cls-10" d="M169.54,193.53c-.56,0-1,.64-1,1.53s.42,1.54,1,1.54,1-.65,1-1.54S170.11,193.53,169.54,193.53Zm0,2.65c-.16,0-.45-.43-.45-1.12s.29-1.11.45-1.11.46.42.46,1.11S169.7,196.18,169.54,196.18Z"/><path class="cls-10" d="M169.54,169.66c-.56,0-1,.65-1,1.54s.42,1.54,1,1.54,1-.65,1-1.54S170.11,169.66,169.54,169.66Zm0,2.65c-.16,0-.45-.42-.45-1.11s.29-1.11.45-1.11.46.42.46,1.11S169.7,172.31,169.54,172.31Z"/><path class="cls-10" d="M181.84,169.66c-.57,0-1,.65-1,1.54s.41,1.54,1,1.54,1-.65,1-1.54S182.41,169.66,181.84,169.66Zm0,2.65c-.16,0-.46-.42-.46-1.11s.3-1.11.46-1.11.46.42.46,1.11S182,172.31,181.84,172.31Z"/><path class="cls-10" d="M175.69,169.66c-.57,0-1,.65-1,1.54s.41,1.54,1,1.54,1-.65,1-1.54S176.26,169.66,175.69,169.66Zm0,2.65c-.16,0-.45-.42-.45-1.11s.29-1.11.45-1.11.46.42.46,1.11S175.85,172.31,175.69,172.31Z"/><path class="cls-10" d="M188,172.74c.57,0,1-.65,1-1.54s-.41-1.54-1-1.54-1,.65-1,1.54S187.42,172.74,188,172.74Zm0-2.65c.16,0,.46.42.46,1.11s-.3,1.11-.46,1.11-.46-.42-.46-1.11S187.83,170.09,188,170.09Z"/><path class="cls-10" d="M181.84,175.77c-.57,0-1,.65-1,1.54s.41,1.53,1,1.53,1-.64,1-1.53S182.41,175.77,181.84,175.77Zm0,2.65c-.16,0-.46-.42-.46-1.11s.3-1.12.46-1.12.46.43.46,1.12S182,178.42,181.84,178.42Z"/><path class="cls-10" d="M175.69,175.77c-.57,0-1,.65-1,1.54s.41,1.53,1,1.53,1-.64,1-1.53S176.26,175.77,175.69,175.77Zm0,2.65c-.16,0-.45-.42-.45-1.11s.29-1.12.45-1.12.46.43.46,1.12S175.85,178.42,175.69,178.42Z"/><path class="cls-10" d="M188,175.77c-.57,0-1,.65-1,1.54s.41,1.53,1,1.53,1-.64,1-1.53S188.56,175.77,188,175.77Zm0,2.65c-.16,0-.46-.42-.46-1.11s.3-1.12.46-1.12.46.43.46,1.12S188.15,178.42,188,178.42Z"/><path class="cls-10" d="M181.84,181.88c-.57,0-1,.65-1,1.54s.41,1.53,1,1.53,1-.65,1-1.53S182.41,181.88,181.84,181.88Zm0,2.65c-.16,0-.46-.42-.46-1.11s.3-1.12.46-1.12.46.42.46,1.12S182,184.53,181.84,184.53Z"/><path class="cls-10" d="M175.69,181.88c-.57,0-1,.65-1,1.54s.41,1.53,1,1.53,1-.65,1-1.53S176.26,181.88,175.69,181.88Zm0,2.65c-.16,0-.45-.42-.45-1.11s.29-1.12.45-1.12.46.42.46,1.12S175.85,184.53,175.69,184.53Z"/><path class="cls-10" d="M188,181.88c-.57,0-1,.65-1,1.54s.41,1.53,1,1.53,1-.65,1-1.53S188.56,181.88,188,181.88Zm0,2.65c-.16,0-.46-.42-.46-1.11s.3-1.12.46-1.12.46.42.46,1.12S188.15,184.53,188,184.53Z"/><path class="cls-10" d="M181.84,187.83c-.57,0-1,.64-1,1.53s.41,1.54,1,1.54,1-.65,1-1.54S182.41,187.83,181.84,187.83Zm0,2.65c-.16,0-.46-.43-.46-1.12s.3-1.11.46-1.11.46.42.46,1.11S182,190.48,181.84,190.48Z"/><path class="cls-10" d="M175.69,187.83c-.57,0-1,.64-1,1.53s.41,1.54,1,1.54,1-.65,1-1.54S176.26,187.83,175.69,187.83Zm0,2.65c-.16,0-.45-.43-.45-1.12s.29-1.11.45-1.11.46.42.46,1.11S175.85,190.48,175.69,190.48Z"/><path class="cls-10" d="M181.84,193.53c-.57,0-1,.64-1,1.53s.41,1.54,1,1.54,1-.65,1-1.54S182.41,193.53,181.84,193.53Zm0,2.65c-.16,0-.46-.43-.46-1.12s.3-1.11.46-1.11.46.42.46,1.11S182,196.18,181.84,196.18Z"/><path class="cls-10" d="M175.69,193.53c-.57,0-1,.64-1,1.53s.41,1.54,1,1.54,1-.65,1-1.54S176.26,193.53,175.69,193.53Zm0,2.65c-.16,0-.45-.43-.45-1.12s.29-1.11.45-1.11.46.42.46,1.11S175.85,196.18,175.69,196.18Z"/><path class="cls-10" d="M169.54,199.58c-.56,0-1,.65-1,1.54s.42,1.53,1,1.53,1-.64,1-1.53S170.11,199.58,169.54,199.58Zm0,2.65c-.16,0-.45-.42-.45-1.11s.29-1.12.45-1.12.46.42.46,1.12S169.7,202.23,169.54,202.23Z"/><path class="cls-10" d="M175.69,199.58c-.57,0-1,.65-1,1.54s.41,1.53,1,1.53,1-.64,1-1.53S176.26,199.58,175.69,199.58Zm0,2.65c-.16,0-.45-.42-.45-1.11s.29-1.12.45-1.12.46.42.46,1.12S175.85,202.23,175.69,202.23Z"/><path class="cls-10" d="M188,187.83c-.57,0-1,.64-1,1.53s.41,1.54,1,1.54,1-.65,1-1.54S188.56,187.83,188,187.83Zm0,2.65c-.16,0-.46-.43-.46-1.12s.3-1.11.46-1.11.46.42.46,1.11S188.15,190.48,188,190.48Z"/><path class="cls-10" d="M161.94,193.53c-.56,0-1,.64-1,1.53s.42,1.54,1,1.54,1-.65,1-1.54S162.51,193.53,161.94,193.53Zm0,2.65c-.16,0-.45-.43-.45-1.12s.29-1.11.45-1.11.46.42.46,1.11S162.1,196.18,161.94,196.18Z"/><path class="cls-10" d="M161.94,169.66c-.56,0-1,.65-1,1.54s.42,1.54,1,1.54,1-.65,1-1.54S162.51,169.66,161.94,169.66Zm0,2.65c-.16,0-.45-.42-.45-1.11s.29-1.11.45-1.11.46.42.46,1.11S162.1,172.31,161.94,172.31Z"/><path class="cls-10" d="M149.64,169.66c-.56,0-1,.65-1,1.54s.42,1.54,1,1.54,1-.65,1-1.54S150.21,169.66,149.64,169.66Zm0,2.65c-.16,0-.45-.42-.45-1.11s.29-1.11.45-1.11.46.42.46,1.11S149.81,172.31,149.64,172.31Z"/><path class="cls-10" d="M155.79,169.66c-.56,0-1,.65-1,1.54s.42,1.54,1,1.54,1-.65,1-1.54S156.36,169.66,155.79,169.66Zm0,2.65c-.16,0-.45-.42-.45-1.11s.29-1.11.45-1.11.46.42.46,1.11S156,172.31,155.79,172.31Z"/><path class="cls-10" d="M143.49,169.66c-.56,0-1,.65-1,1.54s.42,1.54,1,1.54,1-.65,1-1.54S144.06,169.66,143.49,169.66Zm0,2.65c-.16,0-.45-.42-.45-1.11s.29-1.11.45-1.11.46.42.46,1.11S143.66,172.31,143.49,172.31Z"/><path class="cls-10" d="M149.64,163.6c-.56,0-1,.65-1,1.54s.42,1.54,1,1.54,1-.65,1-1.54S150.21,163.6,149.64,163.6Zm0,2.65c-.16,0-.45-.42-.45-1.11s.29-1.11.45-1.11.46.42.46,1.11S149.81,166.25,149.64,166.25Z"/><path class="cls-10" d="M143.49,163.6c-.56,0-1,.65-1,1.54s.42,1.54,1,1.54,1-.65,1-1.54S144.06,163.6,143.49,163.6Zm0,2.65c-.16,0-.45-.42-.45-1.11s.29-1.11.45-1.11.46.42.46,1.11S143.66,166.25,143.49,166.25Z"/><path class="cls-10" d="M138.36,166.68c.57,0,1-.65,1-1.54s-.41-1.54-1-1.54-1,.65-1,1.54S137.79,166.68,138.36,166.68Zm0-2.65c.16,0,.46.42.46,1.11s-.3,1.11-.46,1.11-.46-.42-.46-1.11S138.2,164,138.36,164Z"/><path class="cls-10" d="M132.21,163.6c-.57,0-1,.65-1,1.54s.41,1.54,1,1.54,1-.65,1-1.54S132.78,163.6,132.21,163.6Zm0,2.65c-.16,0-.46-.42-.46-1.11s.3-1.11.46-1.11.46.42.46,1.11S132.37,166.25,132.21,166.25Z"/><path class="cls-10" d="M138.36,172.74c.57,0,1-.65,1-1.54s-.41-1.54-1-1.54-1,.65-1,1.54S137.79,172.74,138.36,172.74Zm0-2.65c.16,0,.46.42.46,1.11s-.3,1.11-.46,1.11-.46-.42-.46-1.11S138.2,170.09,138.36,170.09Z"/><path class="cls-10" d="M132.21,169.66c-.57,0-1,.65-1,1.54s.41,1.54,1,1.54,1-.65,1-1.54S132.78,169.66,132.21,169.66Zm0,2.65c-.16,0-.46-.42-.46-1.11s.3-1.11.46-1.11.46.42.46,1.11S132.37,172.31,132.21,172.31Z"/><path class="cls-10" d="M138.36,178.84c.57,0,1-.64,1-1.53s-.41-1.54-1-1.54-1,.65-1,1.54S137.79,178.84,138.36,178.84Zm0-2.65c.16,0,.46.43.46,1.12s-.3,1.11-.46,1.11-.46-.42-.46-1.11S138.2,176.19,138.36,176.19Z"/><path class="cls-10" d="M132.21,175.77c-.57,0-1,.65-1,1.54s.41,1.53,1,1.53,1-.64,1-1.53S132.78,175.77,132.21,175.77Zm0,2.65c-.16,0-.46-.42-.46-1.11s.3-1.12.46-1.12.46.43.46,1.12S132.37,178.42,132.21,178.42Z"/><path class="cls-10" d="M138.36,185c.57,0,1-.65,1-1.53s-.41-1.54-1-1.54-1,.65-1,1.54S137.79,185,138.36,185Zm0-2.65c.16,0,.46.42.46,1.12s-.3,1.11-.46,1.11-.46-.42-.46-1.11S138.2,182.3,138.36,182.3Z"/><path class="cls-10" d="M132.21,181.88c-.57,0-1,.65-1,1.54s.41,1.53,1,1.53,1-.65,1-1.53S132.78,181.88,132.21,181.88Zm0,2.65c-.16,0-.46-.42-.46-1.11s.3-1.12.46-1.12.46.42.46,1.12S132.37,184.53,132.21,184.53Z"/><path class="cls-10" d="M149.64,175.77c-.56,0-1,.65-1,1.54s.42,1.53,1,1.53,1-.64,1-1.53S150.21,175.77,149.64,175.77Zm0,2.65c-.16,0-.45-.42-.45-1.11s.29-1.12.45-1.12.46.43.46,1.12S149.81,178.42,149.64,178.42Z"/><path class="cls-10" d="M155.79,175.77c-.56,0-1,.65-1,1.54s.42,1.53,1,1.53,1-.64,1-1.53S156.36,175.77,155.79,175.77Zm0,2.65c-.16,0-.45-.42-.45-1.11s.29-1.12.45-1.12.46.43.46,1.12S156,178.42,155.79,178.42Z"/><path class="cls-10" d="M143.49,175.77c-.56,0-1,.65-1,1.54s.42,1.53,1,1.53,1-.64,1-1.53S144.06,175.77,143.49,175.77Zm0,2.65c-.16,0-.45-.42-.45-1.11s.29-1.12.45-1.12.46.43.46,1.12S143.66,178.42,143.49,178.42Z"/><path class="cls-10" d="M149.64,181.88c-.56,0-1,.65-1,1.54s.42,1.53,1,1.53,1-.65,1-1.53S150.21,181.88,149.64,181.88Zm0,2.65c-.16,0-.45-.42-.45-1.11s.29-1.12.45-1.12.46.42.46,1.12S149.81,184.53,149.64,184.53Z"/><path class="cls-10" d="M155.79,181.88c-.56,0-1,.65-1,1.54s.42,1.53,1,1.53,1-.65,1-1.53S156.36,181.88,155.79,181.88Zm0,2.65c-.16,0-.45-.42-.45-1.11s.29-1.12.45-1.12.46.42.46,1.12S156,184.53,155.79,184.53Z"/><path class="cls-10" d="M143.49,181.88c-.56,0-1,.65-1,1.54s.42,1.53,1,1.53,1-.65,1-1.53S144.06,181.88,143.49,181.88Zm0,2.65c-.16,0-.45-.42-.45-1.11s.29-1.12.45-1.12.46.42.46,1.12S143.66,184.53,143.49,184.53Z"/><path class="cls-10" d="M149.64,187.83c-.56,0-1,.64-1,1.53s.42,1.54,1,1.54,1-.65,1-1.54S150.21,187.83,149.64,187.83Zm0,2.65c-.16,0-.45-.43-.45-1.12s.29-1.11.45-1.11.46.42.46,1.11S149.81,190.48,149.64,190.48Z"/><path class="cls-10" d="M155.79,187.83c-.56,0-1,.64-1,1.53s.42,1.54,1,1.54,1-.65,1-1.54S156.36,187.83,155.79,187.83Zm0,2.65c-.16,0-.45-.43-.45-1.12s.29-1.11.45-1.11.46.42.46,1.11S156,190.48,155.79,190.48Z"/><path class="cls-10" d="M149.64,193.53c-.56,0-1,.64-1,1.53s.42,1.54,1,1.54,1-.65,1-1.54S150.21,193.53,149.64,193.53Zm0,2.65c-.16,0-.45-.43-.45-1.12s.29-1.11.45-1.11.46.42.46,1.11S149.81,196.18,149.64,196.18Z"/><path class="cls-10" d="M149.64,199.58c-.56,0-1,.65-1,1.54s.42,1.53,1,1.53,1-.64,1-1.53S150.21,199.58,149.64,199.58Zm0,2.65c-.16,0-.45-.42-.45-1.11s.29-1.12.45-1.12.46.42.46,1.12S149.81,202.23,149.64,202.23Z"/><path class="cls-10" d="M155.79,193.53c-.56,0-1,.64-1,1.53s.42,1.54,1,1.54,1-.65,1-1.54S156.36,193.53,155.79,193.53Zm0,2.65c-.16,0-.45-.43-.45-1.12s.29-1.11.45-1.11.46.42.46,1.11S156,196.18,155.79,196.18Z"/><path class="cls-10" d="M161.94,199.58c-.56,0-1,.65-1,1.54s.42,1.53,1,1.53,1-.64,1-1.53S162.51,199.58,161.94,199.58Zm0,2.65c-.16,0-.45-.42-.45-1.11s.29-1.12.45-1.12.46.42.46,1.12S162.1,202.23,161.94,202.23Z"/><path class="cls-10" d="M155.79,199.58c-.56,0-1,.65-1,1.54s.42,1.53,1,1.53,1-.64,1-1.53S156.36,199.58,155.79,199.58Zm0,2.65c-.16,0-.45-.42-.45-1.11s.29-1.12.45-1.12.46.42.46,1.12S156,202.23,155.79,202.23Z"/><path class="cls-10" d="M143.49,187.83c-.56,0-1,.64-1,1.53s.42,1.54,1,1.54,1-.65,1-1.54S144.06,187.83,143.49,187.83Zm0,2.65c-.16,0-.45-.43-.45-1.12s.29-1.11.45-1.11.46.42.46,1.11S143.66,190.48,143.49,190.48Z"/><path class="cls-10" d="M143.49,193.53c-.56,0-1,.64-1,1.53s.42,1.54,1,1.54,1-.65,1-1.54S144.06,193.53,143.49,193.53Zm0,2.65c-.16,0-.45-.43-.45-1.12s.29-1.11.45-1.11.46.42.46,1.11S143.66,196.18,143.49,196.18Z"/><path class="cls-10" d="M138.59,187.83c-.57,0-1,.64-1,1.53s.41,1.54,1,1.54,1-.65,1-1.54S139.16,187.83,138.59,187.83Zm0,2.65c-.16,0-.46-.43-.46-1.12s.3-1.11.46-1.11.46.42.46,1.11S138.75,190.48,138.59,190.48Z"/><path class="cls-10" d="M344.33,101.14a15.93,15.93,0,0,1,.12,2v2q0,14-10.48,27.09L330.79,136c-1.65,1.65-3,2.92-4,3.83s-3.16,2.61-6.54,5.12a46.15,46.15,0,0,1-10.78,6,33.45,33.45,0,0,1-12.31,2.24q-14.47,0-19.55-6.6t-5.59-7.36c-.36-.51-1.1-1.73-2.24-3.66a26.86,26.86,0,0,1-2.77-8.42A49.9,49.9,0,0,1,266,118.1a23.91,23.91,0,0,1,2.77-10.89,39.26,39.26,0,0,1,6.42-9.37A59.05,59.05,0,0,1,284.61,90l1.65-.94,2.36,1.65a25.81,25.81,0,0,0-5.3,16.13,28.4,28.4,0,0,0,2.12,11.61,67.19,67.19,0,0,0,3.29,6.71c.79,1.3,2,3.09,3.71,5.36a27.77,27.77,0,0,0,6.13,6,26.89,26.89,0,0,0,6.6,3.65,17,17,0,0,0,5.71,1.06,14.05,14.05,0,0,0,8.36-2.59,16.52,16.52,0,0,0,5.66-7.66,34.53,34.53,0,0,0,2-12.6q0-2-.12-3.18c-.08-.79-.27-2.4-.59-4.83a37.9,37.9,0,0,0-1.47-6.78,45.92,45.92,0,0,0-3.59-7.77,36.52,36.52,0,0,0-6.72-8.6,25.16,25.16,0,0,0-7.89-5.42A44.93,44.93,0,0,0,301,79.88a17.33,17.33,0,0,0-4-.41,33,33,0,0,0-5.06.41c-1.81.27-3.42.53-4.84.76L285.2,81l-1.53-2.36,4.71-2.71c1.1-.7,2.36-1.41,3.77-2.12s3.87-1.88,7.36-3.53a25,25,0,0,1,10.78-2.48,41.86,41.86,0,0,1,7.19.83q4.47.83,14.72,7T344.33,101.14Z"/><path class="cls-10" d="M408.41,108.44a38.84,38.84,0,0,1,1.65,10.25,19.68,19.68,0,0,1-3.94,12.19,37.26,37.26,0,0,1-10.84,9.37,75.47,75.47,0,0,1-14,6.59l-1.65-2.23,2.24-1.3a35.53,35.53,0,0,0,9.19-7.42,12.84,12.84,0,0,0,2.83-8.25,22.64,22.64,0,0,0-.53-4.53,68.29,68.29,0,0,0-2.56-8.13q-2-5.6-5-7.42a10.13,10.13,0,0,0-4.95-1.83,7.14,7.14,0,0,0-4.9,2,8.82,8.82,0,0,0-2.79,5.06,45.94,45.94,0,0,0-.59,8.25V149.2l.47,22.5a71.09,71.09,0,0,0-7.77,1.94,61.62,61.62,0,0,0-8,3.13l-.35-26.39v-5.89q0-19.08-.36-23.38a47.39,47.39,0,0,0-1.67-9q-1.31-4.65-4-4.65a8.5,8.5,0,0,0-4.16,1.53l-.72.59-1.19-2.71L365,93.48a3,3,0,0,1,2-.58,3.57,3.57,0,0,1,3.71,2.23,10.83,10.83,0,0,1,.88,3.89l.36,3.53v3.54l4.47-3.3q13.44-9.9,18.26-9.89,3.66,0,7.78,4.82l1.41,1.65A31.93,31.93,0,0,1,408.41,108.44Z"/><path class="cls-10" d="M457.3,94.07q-3.94,3.42-7.16,6.6a89.45,89.45,0,0,0-6.32,7h-4.9v22l.73,4.49a12.14,12.14,0,0,0,1.5,5,4.27,4.27,0,0,0,2.54,1.84,11.67,11.67,0,0,0,2,.35,6,6,0,0,0,2.05-.47l1.21,2.35-4.36,3.18a35.4,35.4,0,0,1-3.65,2.24l-.71.47L436.8,151q-4.12,2.24-6.36,2.24c-2.59,0-4.46-1.88-5.59-5.63a44.63,44.63,0,0,1-2-11q-.24-5.38-.23-19.48l.47-9.47h-3.65c-.95,0-2.44.08-4.48.24s-3.61.23-4.71.23l6.48-8.44,1.76-2.38,1.65-2.37,3.65.47.36-6.48,4.71-3.18,4.71-3.06L437,80.41l3.41-2.24-.82,16.73h7.42q2,0,4.59-.24T457.3,94.07Z"/><path class="cls-10" d="M475.68,141.87a129.58,129.58,0,0,0-16.5,11.19V133.4l-1.06-17.07q0-9.3-4.83-9.3a10.39,10.39,0,0,0-3.29.71l-1.07.47-1.64-2.36,6.47-3.65q3.66-2.48,7.43-5.12t5.18-3.6a4.73,4.73,0,0,1,2.47-.94,15,15,0,0,1,2,.36,3.82,3.82,0,0,1,2.59,2.35c.62,1.33.94,3.69.94,7.06l.82,18.49Zm1.64-62.64-10.13,7.89a6.52,6.52,0,0,1-4.36,1.3,12,12,0,0,1-2.7-.36,6.69,6.69,0,0,1-2.83-1.41,14.31,14.31,0,0,1-2.83-3.53l-.71-1.53a126.79,126.79,0,0,1,10-7.9l3.77-2.35,1.65,1.76a25.3,25.3,0,0,0,4.06,4.25A12.75,12.75,0,0,0,477.32,79.23Z"/><path class="cls-10" d="M591.47,143a141.92,141.92,0,0,0-12.37,8.28l-1.18.95-1.06,1-.71-7.07Q574.74,134,573.68,128A60.46,60.46,0,0,0,571,117.69q-1.59-4.31-5.12-4.3a8.24,8.24,0,0,0-4.6,1.71,33.49,33.49,0,0,0-5.24,4.65,110.57,110.57,0,0,0-7.19,8.84,145.86,145.86,0,0,0-10.07,16l-2.12,3.88-2.24-.47a60,60,0,0,0-.35-7c-.24-2-.67-4.84-1.29-8.54l-.24-1.88-.71-3.89-.23-1.29-1-4.6a9.64,9.64,0,0,0-2.23-4.53,4.77,4.77,0,0,0-3.54-1.59,6.18,6.18,0,0,0-3.65,1.17l-2.59,1.89a78.25,78.25,0,0,0-7,7A122.74,122.74,0,0,0,503.59,136a109.88,109.88,0,0,0-9.31,17.26h-3.41l.12-5.89V129.41q0-10.48-.83-14a13.58,13.58,0,0,0-2.71-5.77c-1.25-1.49-2.39-2.24-3.41-2.24a2.69,2.69,0,0,0-2.24,1.53l-2-2.59,7.42-4.94,8.13-5.9.94-.7A5.07,5.07,0,0,1,499,93.72a3.77,3.77,0,0,1,4.3,2q1.59,2.59,2.41,9.66l.12,1.41L507,119.52l.23,3.06q5.53-7.18,10.49-12.43T531.39,97l.35-.36,1.54-1.53a5.85,5.85,0,0,1,4.12-2q3.06,0,4.83,3.18a34.33,34.33,0,0,1,3.06,8.84,115.08,115.08,0,0,1,2.12,14.72l.24,3.42q6.48-8.43,12.25-14.73T568,100c1.58-1.51,3.34-3,5.31-4.58a9.15,9.15,0,0,1,5.53-2.31q4,0,5,2.72a42.34,42.34,0,0,1,1.47,4.67c.31,1.3.87,4,1.65,8.22l2,11.83.47,3.07.24,1.78.59,5.43.71,7.34Z"/><path class="cls-10" d="M665.68,143.29l-14.25,9.92c-.56-1.67-1-3-1.42-3.93s-1.29-2.91-2.71-5.87a34.83,34.83,0,0,0-5.48-8.23,21.23,21.23,0,0,0-7-5.41,30.09,30.09,0,0,0-10.31-3,34.13,34.13,0,0,0-3.48-.29,21.73,21.73,0,0,0-3.71.35,5.54,5.54,0,0,0-3.24,1.65,4.25,4.25,0,0,0-1.17,2.94,9.73,9.73,0,0,0,.59,2.24c.39,1.18,1.64,2.5,3.77,3.95a13.76,13.76,0,0,0,5.77,2.53,31.48,31.48,0,0,0,3.29.35h1.54a18.79,18.79,0,0,0,8.48-1.76l1.41,1.65-.23.23L632,145.78a36.46,36.46,0,0,1-7.48,5.78,14.16,14.16,0,0,1-6.66,1.65h-2.71c-4.94-.56-8.75-1.93-11.42-4.14a9.85,9.85,0,0,1-4-7.79q0-2.59,2.54-7.32t11-10a44.7,44.7,0,0,1,10.13-4.13l1.53-.24,2.36-.59,4.12-.94L630,115.65a29.65,29.65,0,0,0-6.36-7.43,10,10,0,0,0-6-2.49,7.66,7.66,0,0,0-4.12,1.18l-1-1.29,8-6.72a54.3,54.3,0,0,1,5.83-4.3,8.42,8.42,0,0,1,4.18-1.47q3.66,0,9,7t7.71,10.51q2.41,3.54,5.07,7.85t5.12,9q2.48,4.67,6.72,13Z"/><path class="cls-3" d="M754.5,142.25q-4.37,3.42-9.37,6.83t-7.48,3.18a5.89,5.89,0,0,1-4.83-2.38,90.86,90.86,0,0,1-5.65-8.69l-3.3-5.48-2.59-4.89H687l-.71,2.84a22.69,22.69,0,0,0-.82,2.49,22.1,22.1,0,0,0-.59,3.07l-.59,5-12.84,5.67a38.49,38.49,0,0,1-4,1.54c-1.65.55-3.15,1.07-4.48,1.54,1.33-2,2.75-4.16,4.24-6.59a108,108,0,0,0,5.77-11.6q3.54-8,6.6-15t6.77-15.19a110.93,110.93,0,0,0,5.36-13.72l3.65-10.36,2.24-6.71,2.65-1.18a39.56,39.56,0,0,0,3.83-2c1.33-.78,2.63-1.49,3.89-2.12s2.55-1.25,3.88-1.88a2.78,2.78,0,0,1,2.36.11,4.07,4.07,0,0,1,2.12,2.59l1.3,4.48c.23.87.6,2.06,1.12,3.59s1.88,4.95,4.12,10.25,4.77,11.33,7.6,18.08,4.69,11,5.59,12.84,2.22,4.3,4,7.48a98.16,98.16,0,0,0,5.42,8.9q2.82,4.13,4.83,4.47l3.29.59Zm-38.41-22.5-12.72-30-12.25,30.16,10.6.24Z"/><path class="cls-3" d="M781,141.75l-3.83,2.6-3.72,2.47-8.94,6.24.12-23.67q-.48-21.31-.47-25.79,0-6.94-.3-10c-.2-2-.41-3.91-.65-5.6a36.64,36.64,0,0,0-.7-3.88,8.58,8.58,0,0,0-1.12-2.53,2.55,2.55,0,0,0-2.3-1.18,3.24,3.24,0,0,0-2.59,1.29l-1.65-2.12.71-.59,14.15-9.3,3.57-2.12a6.32,6.32,0,0,1,3-.83q3.21,0,3.92,3.77l.24,2.12V81l.59,48.4Z"/></g></g></svg>