<svg xmlns="http://www.w3.org/2000/svg" viewBox="0 0 797.5 250.5"><defs><style>.cls-1,.cls-2{fill:#fff;}.cls-1,.cls-6{fill-rule:evenodd;}.cls-3{fill:#1a1a1a;}.cls-4{fill:#1d1d1b;}.cls-5{fill:#e2e1e0;}</style></defs><g id="Layer_2" data-name="Layer 2"><g id="Layer_1-2" data-name="Layer 1"><path class="cls-1" d="M114.82,114l-.43-.08-3.45-6.07-3.24-4.4-2-2.19L102,98.3l-2.51-1.77-2.61-1.47-5-2.41-4-1.36-1.16-.1-.83-.32-3-.31H77.34l-5.75.63-4.5,1.25-6.28,2.83L56.62,98.1l-4,3.55-2.93,3.25-3.66,5.44-1.26,2.51-1.25,3.25-1.36,5.44-.53,5.23V131l.53,4.39.42,1.16.31,1.78,1.78,5.12,2.62,5,1.78,2.61,3.24,4,4.08,4,1.36,1h1.36l8.9-4,10-5.55,1.78-1.26.31-.41-.21-.53-3.56-.52-4.29-1.36-2.62-1.36-1.77-1.26L65,141.32l-1.88-2.41L62,137,60.7,134.1l-.62-4v-3.35l.41-2.61.74-2.41,1.67-3.25L65,115.68l1.57-1.47,3-2.3,2.51-1.36,1.89-.63,3.55-.63,3.77.11,3.14.63,2.62,1,2.3,1.26,3.14,2.51,1.88,2,1.68,2.3,1.25,2.62.74,2.3.52,3.35v4.71L98,135.88l-.63,1.67v.63l.21.21.53-.1,1.15-1,1.57-.94,8.16-5.86,4.59-3.43A35.11,35.11,0,0,0,114.82,114Z"/><path class="cls-1" d="M72.22,140l.73.73,1,.63,1.77.31,1.57-.1,1.26-.42.73-.42,1.47-1.36,9.84-.1.73-.32.31-.94v-1.25l-.63-.42H81.22l-.53-.42-.42-.94-.94-1.16-1.88-1.15-1.15-.31-1.57.21-1.47.63L72,134.31l-.74,1.78V138l.32,1.05Zm2.51-3.14.73-.84.42-.21.94.11.94,1-.1,1.05-.94.63h-1l-.41-.21-.74-.84Z"/><polygon class="cls-1" points="93.98 132.53 94.19 132.22 94.3 130.23 93.88 129.6 82.05 129.6 81.64 129.91 81.43 130.54 81.53 132.42 82.26 133.05 90.74 132.95 93.46 132.74 93.98 132.53"/><path class="cls-1" d="M77.55,122.59l-1-1.47-.94-.84-1.68-.62H72.43l-.84.2-1.47.84-1.25,1.47-.53,1.88.21,1.89.74,1.36,1.57,1.36,1.88.52,1.57-.1.94-.42,1.57-1.47.42-.84.63-.52,14.86-.21.52-.52L93,123.32l-.31-.42-.52-.21-14.13.21Zm-3,2.3-.21.42-.63.52L73,126l-1-.31-.52-1,.31-1.15.94-.73,1.05.21.84,1Z"/><polygon class="cls-1" points="88.54 118.5 88.54 117.14 88.23 116.52 87.71 116.2 82.05 116.2 81.74 116.41 81.53 117.04 81.53 118.3 81.95 118.82 88.23 118.82 88.54 118.5"/><path class="cls-1" d="M106.44,174l.31-.62-.1-3.56-.31-.32h-.42l-.84.32-.63.52v2.51l-.31.53-8.58,8.16-1.68,1.26-.84.31-1.46-.21L89,180.78l-1.36-.42-1.67.21-1.26.73-.94,1.15-.32,1.26.11,1.67.63,1.26,1.57,1.05,2,.31,1.25-.31.94-.53.95-1,.31-.74.52-.42H94.4l.95-.31,2.09-1.78ZM88.65,185l-.63.63-.73.32-1.15-.42-.63-1.05v-.52l.31-.63,1.05-.84.84.11,1,1.15Z"/><path class="cls-1" d="M97.65,195.53l1.57.95,1.88.1.74-.21,1.15-.73,1.15-1.47V191l10.67-9.94.11-1.25L114.6,174l-.1-9.1-.52-.52-1,.31-.62.63.1,14.76-2.09,2.3-7.33,6.91-.63.1-.83-.31-1.89-.11-1,.42-1,.73-.73,1-.31.84v1.67l.31.94ZM98.9,192l.74-.84,1.15-.11.42.21.73.95-.1,1.36-1.16.94-1-.11-.74-.62-.2-.53Z"/><path class="cls-1" d="M121.62,194.07l.41-.84-.73-33.38-.42-.42-1,.31-.42.31-.42.74.42,13.29.1,18.42-.63,1.05L115,197.42l-3.45.1-1,.53-.84.94-.41,1.25v1.68l.21.73,1.15,1.47,1.88.73,1.78-.21,1.57-1,.94-1.78v-1.46l-.31-.84.1-.73Zm-7.23,7.43-.73.84-1.15.42-.94-.63-.32-.73v-.53l.63-1,.53-.32h.83l1.05.84.21.73Z"/><polygon class="cls-1" points="129.36 153.57 129.15 153.04 128.63 153.04 127.48 153.88 127.16 154.3 127.06 154.93 127.9 198.47 127.69 202.44 127.37 204.33 126.12 207.36 124.86 209.04 123.29 210.61 121.3 212.07 118.27 213.43 115.13 213.85 112.09 213.75 109.89 213.43 106.13 212.18 103.51 210.81 100.47 208.83 96.81 205.37 93.88 201.6 92.1 198.57 90.85 195.53 90.32 195.33 87.29 195.43 84.88 195.12 83.31 194.7 79.65 193.13 77.24 191.45 75.15 189.47 73.79 187.79 72.22 185.38 71.48 185.38 70.75 185.7 70.33 186.12 70.33 186.53 71.69 188.94 73.37 191.14 75.88 193.65 78.81 195.74 81.53 197 83.52 197.52 89.07 198.15 89.59 198.78 91.26 202.34 92.42 204.22 94.82 207.15 99.11 211.13 102.15 213.12 104.66 214.37 107.17 215.32 109.79 215.94 112.83 216.26 115.23 216.26 118.79 215.74 120.78 215.11 123.29 213.85 124.97 212.7 126.53 211.13 128 209.04 129.15 206.63 129.78 204.75 130.41 201.08 130.41 196.06 129.47 165.81 129.36 153.57"/><polygon class="cls-1" points="36.42 150.01 37.78 152.73 39.67 155.87 41.86 158.8 43.75 160.89 46.37 163.4 47.2 163.51 49.19 162.88 49.71 162.46 49.71 162.15 44.06 156.6 42.07 153.98 39.67 150.01 37.15 143.31 36.11 137.66 35.79 134.2 35.58 133.68 35.38 133.68 34.85 134.41 34.43 136.09 34.22 140.8 34.85 145.4 36.42 150.01"/><path class="cls-1" d="M64.37,79.05H62.8l-1.47.42L60,80.72l-.63,1.57v1.36L60,85.22l1.47,1.26,1.36.42h1.36l.73-.21,1.88-1.57h8.48l6.8.31.63-.73v-.84l-.31-1-.53-.52-1.15-.52-1.25-.21-11.93-.21-1.57-1.78Zm-.11,4.29-.84.84H62.8l-.74-.74v-.73l.95-.94.83.1.53.84Z"/><path class="cls-1" d="M68.76,78.31l1,.42,1.36.11,1.15-.32L74,77.37l.62-.21,7,.11.73.42,7,6.49,4.71,4.71,1,.62h.52l1-1.15.31-.73v-1l-.42-.73-13.29-12-.52-.21-1.57-.1-3.46.21L75,73.6,73.68,72l-1.15-.94-1-.42H70.12l-1.25.42-.53.32-1.15,1.36-.42,1.46v1.26l.84,1.78Zm.84-3.87.63-.73h1l.63.52-.1.94-.94.84-.63-.1-.63-.74Z"/><path class="cls-1" d="M149,93.49l.94,1.26L177,64l-.21-.74-1.25-.73h-.42l-.63.52-22.08,25-.32-.53-.42-9.62.11-4.19,9.73-10.57.73-.32.95.21h1.57l1.25-.62.63-.74.42-.83v-2.1l-.21-.63-1.36-1.67-1.36-.73-1.47-.11-1.36.74-.73.62-.73,1.26-.21,2.93-11,11.09-.21,1.57.1,7Zm13-34.64.73-.74.52-.2.94.1.84,1.05-.1.83-1,.84-1.15-.1-.84-1Z"/><path class="cls-1" d="M97.75,58l-.62-1.67-.74-.84L95,54.77l-1.15-.32-1.15.11-1,.41-1.25,1.26L89.9,57.7l-.21,1.46.42,1.36,1,1.26,3,2.2L107,75.49l.21.42V80.2l.32,6,.52.42,2.09-.1.32-.42V73.4l-.21-.42-6.6-5.76-6.17-6-.11-.52.42-.94Zm-2.4,1.15-.84.73H93.46l-.73-.73v-.84l.21-.41.52-.53.53-.21.73.21.73.94Z"/><path class="cls-1" d="M145.79,59.06l.32-1.47L146,57l-.84-1.78L144,54.24,142.34,54l-1.15.32-1.36,1.25-.63,1.47v1.46l.63,1.26.83.73.74.32.62,1V76.43l.53,12,.21,11,.21.83.73.11,1.26-.94.94-1.16-1.15-32.55-.53-3V61.05Zm-1.67-1-.63.63-.84.42-.83-.1L141,58l.21-1,1.15-.83,1.15.21.73.83Z"/><path class="cls-1" d="M118.58,59.16l.52-1.36V56.44l-.21-.84-.52-.83-1.05-1.05L115.86,53h-1.15l-1,.21-.84.41-1.25,1.47-.32,1.26.11,1.25.42,1,.73,1,1.26,1.16-.11,5.75L114,73l.21,21.66-.32.42h-.63l-1-.73-8.69-7.75-.21-.52-.21-5.86-.31-.73L89.49,67.32l-.74-.94.11-1.88-.21-.84-.53-1-.73-.74-1.57-.83-1.15-.11-1.36.21-1.15.63-.73.73-.63,1.78.1,1.78.53,1.25.73.74,1.46.73,2,.21.63.31,13,12,.21.52v5.65l.42.74,3.45,2.93,7.85,7.53,1,.11,1.36-.73h.52l.21.2.63,9.74v6l-.1,0a35.11,35.11,0,0,1-1.28,13l2.84-2.12,2.31-2.09-.11-10.68-1.26-30.67L117.12,67l-.32-5.86.11-.42ZM86,65.55l-.94.73-.84-.11-.63-.73.11-.94.42-.52.63-.32.73.11.73.94Zm30.46-7.85-.32.31-.94.31-.94-.21-.52-.73.21-.94.73-.73,1.05-.21.83.73.11.94Z"/><path class="cls-1" d="M150,62.41l-.63,1-1.57,1.68-.21.52v2l.42.84.73-.21,3.88-3.67.52-1-.21-2.31.1-3.76,1.47-1.26,1.05-2-.11-1.46-.63-1.15-.94-1.05-.73-.31-2-.11-1.15.42-.84.84-.63,1.15-.1,1.46.52,1.47L150.08,57l.21.63v2.2Zm1.05-10,.83-.42.63.1.84.74.1,1-.83,1-.42.21h-.74l-1-.84-.11-.84Z"/><polygon class="cls-1" points="132.71 110.13 133.02 110.66 133.55 110.55 136.48 108.25 136.9 107.62 136.48 91.4 136.06 83.76 135.85 71.51 135.01 57.7 135.01 54.56 135.54 51.31 136.16 49.43 136.79 48.07 137.94 46.39 140.14 44.4 141.19 43.78 142.86 43.15 145.48 42.73 148.72 42.73 152.28 43.15 156.47 44.4 159.71 46.5 162.43 49.43 164.42 52.88 164.95 53.3 168.71 53.2 171.02 53.41 173.53 53.93 176.67 55.18 178.55 56.44 182.22 59.79 182.63 59.79 184.41 58.22 184.31 57.59 182.42 55.5 178.66 52.57 175.52 50.68 173.95 50.06 170.6 49.32 165.57 49.22 161.07 44.3 158.56 42.31 155.42 40.53 151.76 39.28 148.72 38.86 145.58 38.86 142.55 39.38 140.66 40.01 138.57 41.05 136.16 42.83 134.59 44.4 133.34 46.18 132.08 48.8 131.45 50.89 131.04 53.93 131.98 79.26 132.71 110.13"/><polygon class="cls-1" points="35.48 118.82 35.9 119.76 36.42 119.55 36.63 118.92 37.26 115.05 38.62 110.34 39.77 107.41 41.55 104.17 44.27 100.5 46.37 98.31 50.13 94.95 52.02 93.59 54.21 92.34 55.05 91.29 54.63 89.72 54.21 86.37 54.42 81.77 54.95 79.47 55.89 76.95 57.04 75.07 58.61 73.29 61.33 70.88 64.05 69.31 67.92 67.85 72.01 67.01 72.74 66.07 74.31 62.09 76.61 58.01 79.54 54.77 82.26 52.67 85.4 51.31 87.92 50.58 92.21 50.16 94.72 50.37 95.35 49.95 96.6 48.17 98.69 46.08 100.89 44.51 102.04 43.88 103.61 43.36 107.7 42.63 110.63 42.73 113.24 43.36 116.28 44.93 119.1 47.65 120.57 50.27 121.09 51.84 121.51 54.87 121.83 60.31 121.93 69.1 122.35 79.67 122.56 91.82 122.98 99.56 123.39 118.61 124.23 118.61 127.79 115.57 128.21 115.05 128.1 106.57 127.48 93.7 126.85 72.45 126.74 60.1 126.43 53.93 125.91 50.68 124.86 47.75 123.5 45.35 121.83 43.25 119.84 41.26 117.74 39.8 115.02 38.44 113.45 37.91 110.63 37.5 107.91 37.5 105.29 37.81 102.99 38.44 100.27 39.69 98.28 41.05 95.97 43.15 92.73 46.81 88.44 46.92 85.72 47.34 82.79 48.28 79.65 49.85 77.24 51.63 74.1 54.98 72.53 57.38 70.75 61.26 70.33 62.93 69.91 63.45 69.5 63.66 67.72 63.66 65.1 64.19 62.69 64.92 60.18 66.28 56.94 68.79 55.05 70.78 53.38 73.29 52.12 75.91 51.28 78.42 50.66 82.61 50.66 85.64 51.28 88.89 51.18 89.62 46.37 93.28 42.49 97.36 39.56 101.55 37.15 106.05 35.69 110.34 35.17 113.69 35.27 117.56 35.48 118.82"/><polygon class="cls-2" points="162.73 140.54 163.72 140.53 162.73 140.53 162.73 140.54"/><polygon class="cls-2" points="163.72 140.53 162.73 140.54 162.73 140.53 161.31 140.53 179.61 121.69 179.61 122.71 180.63 122.71 180.63 107.05 180.53 107.05 176.76 110.5 166.5 120.65 152.06 133.63 142.74 141.27 135.52 146.72 134.89 147.34 134.69 147.87 134.89 165.24 135.42 165.24 156.98 165.24 157.4 165.24 157.29 153.31 157.21 152.24 161.79 152.24 179.61 152.05 179.61 140.53 163.72 140.53"/><polygon class="cls-2" points="180.63 107.05 180.63 122.77 179.61 122.77 179.61 140.53 179.61 152.01 179.61 169.95 180.63 169.95 194.89 169.95 194.89 122.77 194.89 107.05 180.63 107.05"/><rect class="cls-3" x="199.98" y="82.99" width="2.95" height="111"/><rect class="cls-4" x="199.98" y="82.99" width="2.95" height="111"/><rect class="cls-5" x="199.98" y="82.99" width="2.95" height="111"/><polygon class="cls-1" points="221.87 174.13 202.93 193.99 202.93 82.99 221.87 82.99 221.87 174.13"/><polygon class="cls-6" points="221.87 174.13 202.93 193.99 202.93 82.99 221.87 82.99 221.87 174.13"/><polygon class="cls-6" points="221.87 174.13 202.93 193.99 202.93 82.99 221.87 82.99 221.87 174.13"/><polygon class="cls-6" points="221.87 174.13 202.93 193.99 202.93 82.99 221.87 82.99 221.87 174.13"/><polygon class="cls-1" points="221.87 174.13 202.93 193.99 202.93 82.99 221.87 82.99 221.87 174.13"/><path class="cls-2" d="M189.36,48c.29.23.43.35.58.45,2.51,1.71,5,3.43,7.53,5.12.39.27.54.44.19.91q-.85,1.11-1.77,2.34l10.5,11L204.71,70c2-2.19,4.43-4.74,6-6.48.45-.48.77-.57,1.34-.15,1.43,1.07,2.91,2,4.37,3.06L219,68.19c1.37-12.27,2.72-24.38,4.08-36.66Z"/><path class="cls-2" d="M195.89,56.78l-.07-.07C158.37,103,83.09,182.19,18.84,174.14,13,173.51,5.44,170.69,0,168.7c1.93,2.18,9.37,5.09,12,6.59,34,14.94,72.68,2.08,101.2-18.84,33.53-23.62,66.61-53.71,91.47-86.41l1.68-2.23Z"/><path class="cls-2" d="M226.78,44.24l-2.5,22.43A109.94,109.94,0,0,1,40.53,187.35a84.27,84.27,0,0,1-19.71-2.86,126,126,0,0,0,21.86,29.33A125.26,125.26,0,0,0,226.78,44.24Z"/><path class="cls-2" d="M18.93,168.57l.1,0a70.31,70.31,0,0,0,11.35.47A109.93,109.93,0,0,1,197.49,37.52L212.7,30.1A125.34,125.34,0,0,0,13.23,167.41,37.47,37.47,0,0,0,18.93,168.57Z"/><rect class="cls-2" x="174.36" y="162.42" width="0.57" height="3.16"/><rect class="cls-2" x="174.36" y="168.53" width="0.57" height="3.16"/><rect class="cls-2" x="174.36" y="193.48" width="0.57" height="3.16"/><rect class="cls-2" x="174.36" y="187.36" width="0.57" height="3.16"/><rect class="cls-2" x="174.36" y="181.06" width="0.57" height="3.16"/><rect class="cls-2" x="166.54" y="162.42" width="0.57" height="3.16" transform="translate(333.64 328.01) rotate(-180)"/><rect class="cls-2" x="166.54" y="168.53" width="0.57" height="3.16" transform="translate(333.64 340.22) rotate(-180)"/><rect class="cls-2" x="159.97" y="162.42" width="0.57" height="3.16" transform="translate(320.5 328.01) rotate(-180)"/><rect class="cls-2" x="159.97" y="168.53" width="0.57" height="3.16" transform="translate(320.5 340.22) rotate(-180)"/><rect class="cls-2" x="166.54" y="193.48" width="0.57" height="3.16" transform="translate(333.64 390.13) rotate(-180)"/><rect class="cls-2" x="166.54" y="187.36" width="0.57" height="3.16" transform="translate(333.64 377.87) rotate(-180)"/><rect class="cls-2" x="166.54" y="181.06" width="0.57" height="3.16" transform="translate(333.64 365.29) rotate(-180)"/><path class="cls-2" d="M174.65,199.35c-.59,0-1,.67-1,1.58s.42,1.59,1,1.59,1-.67,1-1.59S175.23,199.35,174.65,199.35Zm0,2.73c-.17,0-.47-.43-.47-1.15s.3-1.14.47-1.14.47.43.47,1.14S174.81,202.08,174.65,202.08Z"/><path class="cls-2" d="M174.65,174.77c-.59,0-1,.67-1,1.58s.42,1.59,1,1.59,1-.67,1-1.59S175.23,174.77,174.65,174.77Zm0,2.73c-.17,0-.47-.43-.47-1.15s.3-1.14.47-1.14.47.43.47,1.14S174.81,177.5,174.65,177.5Z"/><path class="cls-2" d="M187.32,174.77c-.59,0-1,.67-1,1.58s.42,1.59,1,1.59,1-.67,1-1.59S187.9,174.77,187.32,174.77Zm0,2.73c-.17,0-.47-.43-.47-1.15s.3-1.14.47-1.14.47.43.47,1.14S187.48,177.5,187.32,177.5Z"/><path class="cls-2" d="M181,174.77c-.58,0-1,.67-1,1.58s.43,1.59,1,1.59,1-.67,1-1.59S181.57,174.77,181,174.77Zm0,2.73c-.16,0-.47-.43-.47-1.15s.31-1.14.47-1.14.47.43.47,1.14S181.15,177.5,181,177.5Z"/><path class="cls-2" d="M193.65,177.94c.59,0,1-.67,1-1.59s-.42-1.58-1-1.58-1,.67-1,1.58S193.07,177.94,193.65,177.94Zm0-2.73c.17,0,.47.43.47,1.14s-.3,1.15-.47,1.15-.47-.43-.47-1.15S193.49,175.21,193.65,175.21Z"/><path class="cls-2" d="M187.32,181.06c-.59,0-1,.67-1,1.59s.42,1.58,1,1.58,1-.67,1-1.58S187.9,181.06,187.32,181.06Zm0,2.73c-.17,0-.47-.43-.47-1.14s.3-1.15.47-1.15.47.43.47,1.15S187.48,183.79,187.32,183.79Z"/><path class="cls-2" d="M181,181.06c-.58,0-1,.67-1,1.59s.43,1.58,1,1.58,1-.67,1-1.58S181.57,181.06,181,181.06Zm0,2.73c-.16,0-.47-.43-.47-1.14s.31-1.15.47-1.15.47.43.47,1.15S181.15,183.79,181,183.79Z"/><path class="cls-2" d="M193.65,181.06c-.58,0-1,.67-1,1.59s.43,1.58,1,1.58,1-.67,1-1.58S194.24,181.06,193.65,181.06Zm0,2.73c-.16,0-.47-.43-.47-1.14s.31-1.15.47-1.15.47.43.47,1.15S193.82,183.79,193.65,183.79Z"/><path class="cls-2" d="M187.32,187.36c-.59,0-1,.66-1,1.58s.42,1.58,1,1.58,1-.67,1-1.58S187.9,187.36,187.32,187.36Zm0,2.73c-.17,0-.47-.44-.47-1.15s.3-1.15.47-1.15.47.44.47,1.15S187.48,190.09,187.32,190.09Z"/><path class="cls-2" d="M181,187.36c-.58,0-1,.66-1,1.58s.43,1.58,1,1.58,1-.67,1-1.58S181.57,187.36,181,187.36Zm0,2.73c-.16,0-.47-.44-.47-1.15s.31-1.15.47-1.15.47.44.47,1.15S181.15,190.09,181,190.09Z"/><path class="cls-2" d="M193.65,187.36c-.58,0-1,.66-1,1.58s.43,1.58,1,1.58,1-.67,1-1.58S194.24,187.36,193.65,187.36Zm0,2.73c-.16,0-.47-.44-.47-1.15s.31-1.15.47-1.15.47.44.47,1.15S193.82,190.09,193.65,190.09Z"/><path class="cls-2" d="M187.32,193.48c-.59,0-1,.67-1,1.58s.42,1.59,1,1.59,1-.67,1-1.59S187.9,193.48,187.32,193.48Zm0,2.73c-.17,0-.47-.43-.47-1.15s.3-1.14.47-1.14.47.43.47,1.14S187.48,196.21,187.32,196.21Z"/><path class="cls-2" d="M181,193.48c-.58,0-1,.67-1,1.58s.43,1.59,1,1.59,1-.67,1-1.59S181.57,193.48,181,193.48Zm0,2.73c-.16,0-.47-.43-.47-1.15s.31-1.14.47-1.14.47.43.47,1.14S181.15,196.21,181,196.21Z"/><path class="cls-2" d="M187.32,199.35c-.59,0-1,.67-1,1.58s.42,1.59,1,1.59,1-.67,1-1.59S187.9,199.35,187.32,199.35Zm0,2.73c-.17,0-.47-.43-.47-1.15s.3-1.14.47-1.14.47.43.47,1.14S187.48,202.08,187.32,202.08Z"/><path class="cls-2" d="M181,199.35c-.58,0-1,.67-1,1.58s.43,1.59,1,1.59,1-.67,1-1.59S181.57,199.35,181,199.35Zm0,2.73c-.16,0-.47-.43-.47-1.15s.31-1.14.47-1.14.47.43.47,1.14S181.15,202.08,181,202.08Z"/><path class="cls-2" d="M174.65,205.59c-.59,0-1,.66-1,1.58s.42,1.58,1,1.58,1-.66,1-1.58S175.23,205.59,174.65,205.59Zm0,2.73c-.17,0-.47-.44-.47-1.15s.3-1.15.47-1.15.47.44.47,1.15S174.81,208.32,174.65,208.32Z"/><path class="cls-2" d="M181,205.59c-.58,0-1,.66-1,1.58s.43,1.58,1,1.58,1-.66,1-1.58S181.57,205.59,181,205.59Zm0,2.73c-.16,0-.47-.44-.47-1.15s.31-1.15.47-1.15.47.44.47,1.15S181.15,208.32,181,208.32Z"/><path class="cls-2" d="M193.65,193.48c-.58,0-1,.67-1,1.58s.43,1.59,1,1.59,1-.67,1-1.59S194.24,193.48,193.65,193.48Zm0,2.73c-.16,0-.47-.43-.47-1.15s.31-1.14.47-1.14.47.43.47,1.14S193.82,196.21,193.65,196.21Z"/><path class="cls-2" d="M166.82,199.35c-.59,0-1,.67-1,1.58s.42,1.59,1,1.59,1-.67,1-1.59S167.4,199.35,166.82,199.35Zm0,2.73c-.17,0-.47-.43-.47-1.15s.3-1.14.47-1.14.47.43.47,1.14S167,202.08,166.82,202.08Z"/><path class="cls-2" d="M166.82,174.77c-.59,0-1,.67-1,1.58s.42,1.59,1,1.59,1-.67,1-1.59S167.4,174.77,166.82,174.77Zm0,2.73c-.17,0-.47-.43-.47-1.15s.3-1.14.47-1.14.47.43.47,1.14S167,177.5,166.82,177.5Z"/><path class="cls-2" d="M154.15,174.77c-.59,0-1,.67-1,1.58s.42,1.59,1,1.59,1-.67,1-1.59S154.73,174.77,154.15,174.77Zm0,2.73c-.17,0-.47-.43-.47-1.15s.3-1.14.47-1.14.47.43.47,1.14S154.32,177.5,154.15,177.5Z"/><path class="cls-2" d="M160.48,174.77c-.58,0-1,.67-1,1.58s.43,1.59,1,1.59,1-.67,1-1.59S161.07,174.77,160.48,174.77Zm0,2.73c-.16,0-.47-.43-.47-1.15s.31-1.14.47-1.14.48.43.48,1.14S160.65,177.5,160.48,177.5Z"/><path class="cls-2" d="M147.81,174.77c-.58,0-1,.67-1,1.58s.42,1.59,1,1.59,1-.67,1-1.59S148.4,174.77,147.81,174.77Zm0,2.73c-.16,0-.47-.43-.47-1.15s.31-1.14.47-1.14.48.43.48,1.14S148,177.5,147.81,177.5Z"/><path class="cls-2" d="M154.15,168.53c-.59,0-1,.67-1,1.58s.42,1.58,1,1.58,1-.66,1-1.58S154.73,168.53,154.15,168.53Zm0,2.73c-.17,0-.47-.44-.47-1.15s.3-1.15.47-1.15.47.44.47,1.15S154.32,171.26,154.15,171.26Z"/><path class="cls-2" d="M147.81,168.53c-.58,0-1,.67-1,1.58s.42,1.58,1,1.58,1-.66,1-1.58S148.4,168.53,147.81,168.53Zm0,2.73c-.16,0-.47-.44-.47-1.15s.31-1.15.47-1.15.48.44.48,1.15S148,171.26,147.81,171.26Z"/><path class="cls-2" d="M142.53,171.69c.58,0,1-.66,1-1.58s-.43-1.58-1-1.58-1,.67-1,1.58S141.94,171.69,142.53,171.69Zm0-2.73c.16,0,.47.44.47,1.15s-.31,1.15-.47,1.15-.47-.44-.47-1.15S142.36,169,142.53,169Z"/><path class="cls-2" d="M136.19,168.53c-.58,0-1,.67-1,1.58s.43,1.58,1,1.58,1-.66,1-1.58S136.78,168.53,136.19,168.53Zm0,2.73c-.16,0-.47-.44-.47-1.15s.31-1.15.47-1.15.47.44.47,1.15S136.36,171.26,136.19,171.26Z"/><path class="cls-2" d="M142.53,177.94c.58,0,1-.67,1-1.59s-.43-1.58-1-1.58-1,.67-1,1.58S141.94,177.94,142.53,177.94Zm0-2.73c.16,0,.47.43.47,1.14s-.31,1.15-.47,1.15-.47-.43-.47-1.15S142.36,175.21,142.53,175.21Z"/><path class="cls-2" d="M136.19,174.77c-.58,0-1,.67-1,1.58s.43,1.59,1,1.59,1-.67,1-1.59S136.78,174.77,136.19,174.77Zm0,2.73c-.16,0-.47-.43-.47-1.15s.31-1.14.47-1.14.47.43.47,1.14S136.36,177.5,136.19,177.5Z"/><path class="cls-2" d="M142.53,184.23c.58,0,1-.67,1-1.58s-.43-1.59-1-1.59-1,.67-1,1.59S141.94,184.23,142.53,184.23Zm0-2.73c.16,0,.47.43.47,1.15s-.31,1.14-.47,1.14-.47-.43-.47-1.14S142.36,181.5,142.53,181.5Z"/><path class="cls-2" d="M136.19,181.06c-.58,0-1,.67-1,1.59s.43,1.58,1,1.58,1-.67,1-1.58S136.78,181.06,136.19,181.06Zm0,2.73c-.16,0-.47-.43-.47-1.14s.31-1.15.47-1.15.47.43.47,1.15S136.36,183.79,136.19,183.79Z"/><path class="cls-2" d="M142.53,190.52c.58,0,1-.67,1-1.58s-.43-1.58-1-1.58-1,.66-1,1.58S141.94,190.52,142.53,190.52Zm0-2.73c.16,0,.47.44.47,1.15s-.31,1.15-.47,1.15-.47-.44-.47-1.15S142.36,187.79,142.53,187.79Z"/><path class="cls-2" d="M136.19,187.36c-.58,0-1,.66-1,1.58s.43,1.58,1,1.58,1-.67,1-1.58S136.78,187.36,136.19,187.36Zm0,2.73c-.16,0-.47-.44-.47-1.15s.31-1.15.47-1.15.47.44.47,1.15S136.36,190.09,136.19,190.09Z"/><path class="cls-2" d="M154.15,181.06c-.59,0-1,.67-1,1.59s.42,1.58,1,1.58,1-.67,1-1.58S154.73,181.06,154.15,181.06Zm0,2.73c-.17,0-.47-.43-.47-1.14s.3-1.15.47-1.15.47.43.47,1.15S154.32,183.79,154.15,183.79Z"/><path class="cls-2" d="M160.48,181.06c-.58,0-1,.67-1,1.59s.43,1.58,1,1.58,1-.67,1-1.58S161.07,181.06,160.48,181.06Zm0,2.73c-.16,0-.47-.43-.47-1.14s.31-1.15.47-1.15.48.43.48,1.15S160.65,183.79,160.48,183.79Z"/><path class="cls-2" d="M147.81,181.06c-.58,0-1,.67-1,1.59s.42,1.58,1,1.58,1-.67,1-1.58S148.4,181.06,147.81,181.06Zm0,2.73c-.16,0-.47-.43-.47-1.14s.31-1.15.47-1.15.48.43.48,1.15S148,183.79,147.81,183.79Z"/><path class="cls-2" d="M154.15,187.36c-.59,0-1,.66-1,1.58s.42,1.58,1,1.58,1-.67,1-1.58S154.73,187.36,154.15,187.36Zm0,2.73c-.17,0-.47-.44-.47-1.15s.3-1.15.47-1.15.47.44.47,1.15S154.32,190.09,154.15,190.09Z"/><path class="cls-2" d="M160.48,187.36c-.58,0-1,.66-1,1.58s.43,1.58,1,1.58,1-.67,1-1.58S161.07,187.36,160.48,187.36Zm0,2.73c-.16,0-.47-.44-.47-1.15s.31-1.15.47-1.15.48.44.48,1.15S160.65,190.09,160.48,190.09Z"/><path class="cls-2" d="M147.81,187.36c-.58,0-1,.66-1,1.58s.42,1.58,1,1.58,1-.67,1-1.58S148.4,187.36,147.81,187.36Zm0,2.73c-.16,0-.47-.44-.47-1.15s.31-1.15.47-1.15.48.44.48,1.15S148,190.09,147.81,190.09Z"/><path class="cls-2" d="M154.15,193.48c-.59,0-1,.67-1,1.58s.42,1.59,1,1.59,1-.67,1-1.59S154.73,193.48,154.15,193.48Zm0,2.73c-.17,0-.47-.43-.47-1.15s.3-1.14.47-1.14.47.43.47,1.14S154.32,196.21,154.15,196.21Z"/><path class="cls-2" d="M160.48,193.48c-.58,0-1,.67-1,1.58s.43,1.59,1,1.59,1-.67,1-1.59S161.07,193.48,160.48,193.48Zm0,2.73c-.16,0-.47-.43-.47-1.15s.31-1.14.47-1.14.48.43.48,1.14S160.65,196.21,160.48,196.21Z"/><path class="cls-2" d="M154.15,199.35c-.59,0-1,.67-1,1.58s.42,1.59,1,1.59,1-.67,1-1.59S154.73,199.35,154.15,199.35Zm0,2.73c-.17,0-.47-.43-.47-1.15s.3-1.14.47-1.14.47.43.47,1.14S154.32,202.08,154.15,202.08Z"/><path class="cls-2" d="M154.15,205.59c-.59,0-1,.66-1,1.58s.42,1.58,1,1.58,1-.66,1-1.58S154.73,205.59,154.15,205.59Zm0,2.73c-.17,0-.47-.44-.47-1.15s.3-1.15.47-1.15.47.44.47,1.15S154.32,208.32,154.15,208.32Z"/><path class="cls-2" d="M160.48,199.35c-.58,0-1,.67-1,1.58s.43,1.59,1,1.59,1-.67,1-1.59S161.07,199.35,160.48,199.35Zm0,2.73c-.16,0-.47-.43-.47-1.15s.31-1.14.47-1.14.48.43.48,1.14S160.65,202.08,160.48,202.08Z"/><path class="cls-2" d="M166.82,205.59c-.59,0-1,.66-1,1.58s.42,1.58,1,1.58,1-.66,1-1.58S167.4,205.59,166.82,205.59Zm0,2.73c-.17,0-.47-.44-.47-1.15s.3-1.15.47-1.15.47.44.47,1.15S167,208.32,166.82,208.32Z"/><path class="cls-2" d="M160.48,205.59c-.58,0-1,.66-1,1.58s.43,1.58,1,1.58,1-.66,1-1.58S161.07,205.59,160.48,205.59Zm0,2.73c-.16,0-.47-.44-.47-1.15s.31-1.15.47-1.15.48.44.48,1.15S160.65,208.32,160.48,208.32Z"/><path class="cls-2" d="M147.81,193.48c-.58,0-1,.67-1,1.58s.42,1.59,1,1.59,1-.67,1-1.59S148.4,193.48,147.81,193.48Zm0,2.73c-.16,0-.47-.43-.47-1.15s.31-1.14.47-1.14.48.43.48,1.14S148,196.21,147.81,196.21Z"/><path class="cls-2" d="M147.81,199.35c-.58,0-1,.67-1,1.58s.42,1.59,1,1.59,1-.67,1-1.59S148.4,199.35,147.81,199.35Zm0,2.73c-.16,0-.47-.43-.47-1.15s.31-1.14.47-1.14.48.43.48,1.14S148,202.08,147.81,202.08Z"/><path class="cls-2" d="M142.76,193.48c-.58,0-1,.67-1,1.58s.43,1.59,1,1.59,1-.67,1-1.59S143.35,193.48,142.76,193.48Zm0,2.73c-.16,0-.47-.43-.47-1.15s.31-1.14.47-1.14.47.43.47,1.14S142.93,196.21,142.76,196.21Z"/><path class="cls-2" d="M360.9,104.8a16,16,0,0,1,.12,2v2q0,14-10.49,27.09l-3.18,3.77q-2.48,2.47-3.94,3.82t-6.54,5.13a46.31,46.31,0,0,1-10.78,6,33.23,33.23,0,0,1-12.3,2.24q-14.49,0-19.55-6.59t-5.6-7.37c-.35-.5-1.1-1.72-2.24-3.65a26.72,26.72,0,0,1-2.76-8.42,49.9,49.9,0,0,1-1.06-9.07,24,24,0,0,1,2.76-10.89,40,40,0,0,1,6.42-9.36,58.9,58.9,0,0,1,9.42-7.89l1.65-1,2.36,1.65a25.9,25.9,0,0,0-5.3,16.14,28.55,28.55,0,0,0,2.12,11.6,64.54,64.54,0,0,0,3.3,6.71c.78,1.3,2,3.08,3.71,5.36a27.72,27.72,0,0,0,6.12,6,26.89,26.89,0,0,0,6.6,3.65,17,17,0,0,0,5.71,1.06,14.05,14.05,0,0,0,8.36-2.59,16.58,16.58,0,0,0,5.66-7.66,34.53,34.53,0,0,0,2-12.6q0-2-.12-3.18c-.08-.78-.28-2.39-.59-4.83a38.48,38.48,0,0,0-1.47-6.77,45.92,45.92,0,0,0-3.59-7.77,36.32,36.32,0,0,0-6.72-8.6,25,25,0,0,0-7.89-5.42,47.28,47.28,0,0,0-5.54-1.89,17.9,17.9,0,0,0-4-.41,34.29,34.29,0,0,0-5.06.41c-1.81.28-3.42.53-4.83.77l-1.89.35-1.53-2.35L305,79.6a41,41,0,0,1,3.77-2.12c1.41-.71,3.87-1.88,7.36-3.53a25,25,0,0,1,10.78-2.48,41.86,41.86,0,0,1,7.19.83q4.47.83,14.72,7T360.9,104.8Z"/><path class="cls-2" d="M425,112.11a38.71,38.71,0,0,1,1.65,10.24,19.69,19.69,0,0,1-3.95,12.19,37.13,37.13,0,0,1-10.84,9.37,76.7,76.7,0,0,1-13.95,6.59l-1.65-2.23,2.24-1.3a35.49,35.49,0,0,0,9.18-7.42,12.79,12.79,0,0,0,2.83-8.25,22.56,22.56,0,0,0-.52-4.53,67,67,0,0,0-2.57-8.13c-1.35-3.72-3-6.2-5-7.42a10.17,10.17,0,0,0-4.95-1.82,7.17,7.17,0,0,0-4.89,2,8.87,8.87,0,0,0-2.8,5.06,47,47,0,0,0-.58,8.25v28.15l.47,22.49a69,69,0,0,0-7.77,2,60.14,60.14,0,0,0-8,3.12L373.5,154v-5.88q0-19.08-.36-23.38a47.9,47.9,0,0,0-1.66-9c-.88-3.1-2.23-4.66-4.05-4.66a8.53,8.53,0,0,0-4.16,1.54l-.71.58-1.19-2.7,20.14-13.43a3,3,0,0,1,2-.59,3.58,3.58,0,0,1,3.71,2.24,10.82,10.82,0,0,1,.88,3.88l.36,3.54v3.53l4.47-3.3q13.43-9.89,18.26-9.89,3.65,0,7.77,4.83l1.42,1.65A31.93,31.93,0,0,1,425,112.11Z"/><path class="cls-2" d="M473.85,97.74q-3.94,3.42-7.16,6.59a91.58,91.58,0,0,0-6.33,7h-4.89v22l.73,4.49a12.19,12.19,0,0,0,1.5,5,4.21,4.21,0,0,0,2.54,1.83,10.9,10.9,0,0,0,2,.36,6,6,0,0,0,2-.47l1.2,2.35L461.13,150a36.54,36.54,0,0,1-3.65,2.24l-.71.47-3.42,1.88c-2.75,1.5-4.87,2.24-6.36,2.24q-3.89,0-5.59-5.62a44.14,44.14,0,0,1-1.94-11q-.24-5.39-.24-19.48l.47-9.47H436c-.94,0-2.44.08-4.48.24s-3.61.23-4.71.23l6.48-8.44,1.77-2.37,1.65-2.38,3.65.47.35-6.48,4.71-3.17,4.71-3.07,3.42-2.24L457,81.84l-.82,16.72h7.42c1.33,0,2.86-.08,4.59-.23S471.8,98,473.85,97.74Z"/><path class="cls-2" d="M492.22,145.53a130.45,130.45,0,0,0-16.49,11.18V137.06L474.67,120q0-9.3-4.83-9.3a10.44,10.44,0,0,0-3.3.71l-1.06.47-1.65-2.36,6.48-3.65q3.65-2.46,7.42-5.12c2.51-1.77,4.24-3,5.18-3.59a4.67,4.67,0,0,1,2.48-.94,14.17,14.17,0,0,1,2,.35A3.82,3.82,0,0,1,490,98.91c.63,1.34.94,3.69.94,7.07l.83,18.48Zm1.65-62.63-10.13,7.89a6.58,6.58,0,0,1-4.36,1.29,11.91,11.91,0,0,1-2.71-.35,7,7,0,0,1-2.82-1.41A14.39,14.39,0,0,1,471,86.78l-.71-1.53a126,126,0,0,1,10-7.89L484.09,75l1.65,1.76A24.76,24.76,0,0,0,489.8,81,12.51,12.51,0,0,0,493.87,82.9Z"/><path class="cls-2" d="M608,146.69A143.36,143.36,0,0,0,595.63,155l-1.18.95-1.06.94-.71-7.06q-1.41-12.13-2.47-18.14a60.46,60.46,0,0,0-2.65-10.31c-1.06-2.86-2.77-4.3-5.12-4.3a8.24,8.24,0,0,0-4.6,1.71,33.49,33.49,0,0,0-5.24,4.65,108.69,108.69,0,0,0-7.18,8.84,144.36,144.36,0,0,0-10.07,16l-2.12,3.88-2.24-.47a59.69,59.69,0,0,0-.36-7q-.35-3-1.29-8.54l-.24-1.88-.7-3.89-.24-1.29-.94-4.6a9.65,9.65,0,0,0-2.24-4.53,4.77,4.77,0,0,0-3.53-1.59,6.07,6.07,0,0,0-3.65,1.18l-2.59,1.88a76.93,76.93,0,0,0-7,7,122.74,122.74,0,0,0-8.07,11.25,109.35,109.35,0,0,0-9.3,17.25h-3.42l.12-5.89v-17.9q0-10.48-.83-14a13.63,13.63,0,0,0-2.71-5.78c-1.25-1.49-2.39-2.23-3.41-2.23a2.67,2.67,0,0,0-2.24,1.53l-2-2.59,7.42-4.95,8.13-5.89.94-.71a5.15,5.15,0,0,1,2.71-1.06,3.78,3.78,0,0,1,4.3,2q1.59,2.58,2.41,9.65l.12,1.42,1.18,12.72.23,3.06q5.54-7.18,10.48-12.43t13.67-13.13l.35-.35,1.53-1.53a5.85,5.85,0,0,1,4.12-2q3.06,0,4.83,3.17a34.33,34.33,0,0,1,3.06,8.84,113.84,113.84,0,0,1,2.12,14.72l.24,3.42q6.48-8.43,12.25-14.72t8.12-8.55c1.57-1.5,3.34-3,5.31-4.57a9.15,9.15,0,0,1,5.53-2.31q4,0,5,2.71a47.22,47.22,0,0,1,1.47,4.68q.46,1.95,1.65,8.21l2,11.83.47,3.07.24,1.78.58,5.43.71,7.34Z"/><path class="cls-2" d="M682.19,147l-14.25,9.91c-.55-1.66-1-3-1.41-3.92s-1.3-2.91-2.71-5.88a35,35,0,0,0-5.48-8.22,21.1,21.1,0,0,0-7-5.41,30.09,30.09,0,0,0-10.31-3,34.21,34.21,0,0,0-3.47-.29,21.55,21.55,0,0,0-3.71.35,5.48,5.48,0,0,0-3.24,1.65,4.22,4.22,0,0,0-1.18,2.94,9.73,9.73,0,0,0,.59,2.24c.39,1.18,1.65,2.49,3.77,3.95a14,14,0,0,0,5.77,2.53c1.72.23,2.82.35,3.3.35h1.53a18.92,18.92,0,0,0,8.48-1.76l1.41,1.64-.24.24-5.53,5.18a36.71,36.71,0,0,1-7.48,5.77,14,14,0,0,1-6.65,1.65h-2.71q-7.42-.83-11.43-4.13a9.84,9.84,0,0,1-4-7.79q0-2.61,2.53-7.32t11-10a44.7,44.7,0,0,1,10.13-4.13l1.53-.24,2.36-.59,4.12-.94-1.41-2.36a29.54,29.54,0,0,0-6.36-7.44,10,10,0,0,0-6-2.48,7.57,7.57,0,0,0-4.12,1.18l-.94-1.3,8-6.71a51.68,51.68,0,0,1,5.83-4.3,8.42,8.42,0,0,1,4.18-1.47q3.66,0,9,7t7.71,10.5q2.41,3.54,5.07,7.85t5.12,9q2.47,4.65,6.71,13Z"/><path class="cls-2" d="M771,145.91q-4.37,3.42-9.37,6.83c-3.33,2.28-5.83,3.34-7.47,3.18a5.89,5.89,0,0,1-4.83-2.38,90.26,90.26,0,0,1-5.66-8.7l-3.3-5.47-2.59-4.89H703.51l-.71,2.84a25,25,0,0,0-.82,2.49,23.35,23.35,0,0,0-.59,3.07l-.59,5L688,153.52a37.62,37.62,0,0,1-4,1.54q-2.48.83-4.48,1.54,2-2.94,4.24-6.59a108,108,0,0,0,5.77-11.6q3.54-7.95,6.6-15t6.77-15.18a111.54,111.54,0,0,0,5.36-13.72l3.65-10.36,2.24-6.71,2.65-1.18a41.92,41.92,0,0,0,3.83-2c1.33-.79,2.63-1.49,3.89-2.12s2.55-1.26,3.88-1.89a2.82,2.82,0,0,1,2.36.12A4.07,4.07,0,0,1,732.84,73l1.29,4.48c.24.86.61,2.06,1.12,3.59s1.89,5,4.12,10.25,4.77,11.33,7.6,18.08,4.69,11,5.59,12.83,2.22,4.3,4,7.49,3.54,6.14,5.42,8.89,3.49,4.24,4.83,4.47l3.3.59Zm-38.4-22.5-12.72-30-12.25,30.15,10.6.24Z"/><path class="cls-2" d="M797.5,145.41,793.67,148,790,150.47,781,156.71l.12-23.66q-.48-21.32-.48-25.78c0-4.63-.09-8-.29-10s-.41-3.9-.65-5.59a36.92,36.92,0,0,0-.7-3.89,8.81,8.81,0,0,0-1.12-2.53,2.58,2.58,0,0,0-2.3-1.18,3.25,3.25,0,0,0-2.59,1.3l-1.65-2.12.71-.59,14.15-9.3,3.56-2.12a6.38,6.38,0,0,1,3-.83c2.14,0,3.44,1.26,3.92,3.77l.24,2.12v8.36l.59,48.39Z"/></g></g></svg>