<svg xmlns="http://www.w3.org/2000/svg" viewBox="0 0 801.81 253.5"><defs><style>.cls-1,.cls-2{fill:#1e3e62;}.cls-1,.cls-6,.cls-7{fill-rule:evenodd;}.cls-3{fill:#1a1a1a;}.cls-4{fill:#1d1d1b;}.cls-5{fill:#18334c;}.cls-6{fill:#fff;}</style></defs><g id="Layer_2" data-name="Layer 2"><g id="Layer_1-2" data-name="Layer 1"><path class="cls-1" d="M116.2,115.35l-.44-.09-3.49-6.14L109,104.67l-2-2.22-3.7-3-2.55-1.8L98.08,96.2,93,93.76l-4-1.37-1.17-.11L87,92l-3.08-.32H78.27l-5.82.64-4.56,1.27-6.35,2.86L57.3,99.27l-4,3.6-3,3.28-3.71,5.51-1.27,2.54-1.27,3.29L42.68,123l-.53,5.3v4.24l.53,4.45.43,1.16.31,1.8,1.81,5.19,2.64,5.09,1.8,2.64,3.29,4,4.13,4L58.46,162h1.38l9-4L79,152.33l1.8-1.27.32-.42-.21-.53-3.6-.53L73,148.2l-2.64-1.37-1.8-1.28L65.77,143l-1.9-2.43-1.17-1.91-1.27-3-.64-4v-3.39l.43-2.65.74-2.43,1.69-3.29,2.12-2.86,1.59-1.48,3.07-2.33L73,111.87l1.91-.63,3.6-.64,3.82.11,3.17.63,2.65,1.06,2.33,1.27,3.18,2.55,1.9,2,1.7,2.33,1.27,2.65.74,2.33.53,3.39v4.76l-.63,3.82-.64,1.69v.64l.21.21.53-.11,1.17-1.06,1.59-.95,8.26-5.93,4.64-3.47A35.52,35.52,0,0,0,116.2,115.35Z"/><path class="cls-1" d="M73.08,141.64l.74.74,1.06.63,1.8.32,1.59-.11,1.27-.42.74-.42L81.77,141l10-.11.74-.31.32-1v-1.27l-.63-.42h-10l-.53-.42-.42-1-1-1.16-1.9-1.17-1.17-.32-1.59.22-1.48.63-1.27,1.17-.74,1.8v1.9l.32,1.06Zm2.54-3.18.74-.85.43-.21.95.11,1,1.05-.1,1.06-1,.64h-1l-.42-.21-.74-.85Z"/><polygon class="cls-1" points="95.11 134.12 95.32 133.8 95.43 131.79 95 131.15 83.04 131.15 82.61 131.47 82.4 132.1 82.51 134.01 83.25 134.65 91.83 134.54 94.58 134.33 95.11 134.12"/><path class="cls-1" d="M78.48,124.05l-1.06-1.48-1-.85-1.69-.63H73.29l-.84.21-1.49.85-1.27,1.48-.53,1.91.21,1.9.75,1.38,1.58,1.38,1.91.53,1.59-.11,1-.42,1.59-1.49.42-.84.64-.53,15-.21.53-.53-.21-1.8-.32-.43-.53-.21-14.3.21Zm-3.07,2.33-.21.43-.64.53-.74.21-1.06-.32-.53-1,.32-1.17,1-.74,1.06.21.85,1.06Z"/><polygon class="cls-1" points="89.6 119.92 89.6 118.55 89.29 117.91 88.76 117.59 83.04 117.59 82.72 117.81 82.51 118.44 82.51 119.71 82.93 120.24 89.29 120.24 89.6 119.92"/><path class="cls-1" d="M107.71,176.06l.32-.64-.1-3.6-.32-.32h-.42l-.85.32-.64.53v2.54l-.32.53-8.68,8.26L95,185l-.85.31-1.49-.21L90,182.94l-1.38-.42-1.69.21-1.28.74-1,1.17-.32,1.27.11,1.69.64,1.27,1.58,1.06,2,.32,1.27-.32,1-.53,1-1.06.32-.74.53-.42h2.75l1-.32,2.12-1.8Zm-18,11.12-.64.63-.74.32-1.16-.42-.64-1.06v-.53l.32-.64,1.06-.84.85.1,1.06,1.17Z"/><path class="cls-1" d="M98.82,197.88l1.59,1,1.9.11.74-.22,1.17-.74,1.16-1.48v-3.18l10.81-10.06.1-1.27-.31-5.93-.11-9.22-.53-.53-1,.32-.64.64.11,14.93-2.12,2.33-7.41,7-.64.11-.85-.32-1.9-.11-1.06.43-1,.74-.74,1.06-.32.85V196l.32.95Zm1.27-3.6.74-.85,1.17-.11.42.21.74,1-.11,1.37-1.16,1-1.06-.11-.74-.63-.21-.53Z"/><path class="cls-1" d="M123.07,196.39l.43-.84-.75-33.79-.42-.42-1.06.31-.42.32-.43.74.43,13.45.1,18.65-.63,1.05-3.92,3.92-3.5.11-1.05.53-.85,1-.43,1.27v1.7l.22.74,1.16,1.48,1.91.74,1.8-.21,1.59-1.06,1-1.8v-1.48l-.32-.85.11-.74Zm-7.31,7.52-.74.85-1.16.42-1-.63-.31-.74v-.53l.63-1.06.53-.32h.85l1.06.85.21.74Z"/><polygon class="cls-1" points="130.91 155.41 130.7 154.88 130.17 154.88 129 155.72 128.69 156.15 128.58 156.78 129.43 200.84 129.22 204.87 128.9 206.77 127.63 209.84 126.36 211.54 124.77 213.13 122.75 214.61 119.68 215.99 116.51 216.41 113.43 216.31 111.21 215.99 107.4 214.72 104.75 213.34 101.68 211.33 97.97 207.83 95 204.02 93.2 200.95 91.93 197.88 91.4 197.66 88.33 197.77 85.9 197.45 84.31 197.03 80.6 195.44 78.17 193.75 76.05 191.73 74.67 190.04 73.08 187.6 72.34 187.6 71.6 187.92 71.17 188.34 71.17 188.77 72.55 191.2 74.25 193.43 76.79 195.97 79.75 198.09 82.51 199.36 84.52 199.89 90.13 200.52 90.66 201.16 92.36 204.76 93.52 206.67 95.96 209.63 100.3 213.66 103.37 215.67 105.91 216.94 108.46 217.89 111.1 218.53 114.18 218.85 116.61 218.85 120.21 218.32 122.22 217.68 124.77 216.41 126.46 215.25 128.05 213.66 129.53 211.54 130.7 209.1 131.33 207.2 131.97 203.49 131.97 198.41 131.02 167.8 130.91 155.41"/><polygon class="cls-1" points="36.86 151.8 38.23 154.56 40.14 157.74 42.37 160.7 44.27 162.82 46.92 165.36 47.77 165.47 49.78 164.83 50.31 164.41 50.31 164.09 44.59 158.48 42.58 155.83 40.14 151.8 37.6 145.03 36.54 139.31 36.22 135.81 36.01 135.28 35.8 135.28 35.27 136.02 34.85 137.72 34.63 142.48 35.27 147.14 36.86 151.8"/><path class="cls-1" d="M65.14,80H63.55l-1.48.43-1.38,1.27-.64,1.59v1.37l.64,1.59,1.48,1.27,1.38.43h1.38l.74-.21,1.9-1.59h8.58l6.89.31.63-.74v-.84l-.32-1.06-.53-.53-1.16-.53-1.27-.21-12.08-.22-1.58-1.8ZM65,84.34l-.85.84h-.63l-.74-.74V83.7l.95-1,.85.1.53.85Z"/><path class="cls-1" d="M69.59,79.25l1,.43,1.38.1,1.17-.32,1.69-1.16.64-.21,7.09.1.74.43,7.1,6.56L95.22,90l1.06.64h.53l1-1.17.32-.74V87.62l-.42-.74L84.31,74.7l-.53-.21-1.59-.11-3.5.21-2.75-.1L74.56,72.9l-1.16-1-1.06-.42H71l-1.27.42-.53.32L68,73.64l-.43,1.48v1.27l.85,1.8Zm.84-3.92.64-.74h1.06l.63.53-.1.95-1,.85-.63-.1-.64-.75Z"/><path class="cls-1" d="M150.82,94.61l1,1.27L179.1,64.74l-.21-.74-1.27-.74h-.43l-.63.53L154.21,89.1l-.32-.53-.42-9.74.11-4.24,9.85-10.7.74-.31,1,.21h1.59l1.27-.64.64-.74.42-.85V59.45l-.21-.64-1.38-1.69-1.38-.75-1.48-.1-1.38.74-.74.64-.74,1.27-.21,3L150.4,73.11l-.21,1.59.1,7.09ZM164,59.55l.74-.74.53-.21,1,.1.85,1.06-.11.85-1.06.85-1.16-.11-.85-1Z"/><path class="cls-1" d="M98.92,58.7,98.29,57l-.74-.85-1.38-.74L95,55.1l-1.17.11-1.06.42L91.51,56.9,91,58.39l-.21,1.48.42,1.38,1.06,1.27,3.07,2.22,12.92,11.65.22.43v4.34l.31,6,.53.42,2.12-.11.32-.42V74.27l-.21-.42L104.86,68l-6.25-6-.11-.53.42-1Zm-2.43,1.17-.85.74H94.58l-.74-.74V59l.21-.42.53-.53.53-.21.74.21.74,1Z"/><path class="cls-1" d="M147.54,59.76l.32-1.48-.11-.63-.85-1.8-1.16-1-1.7-.21-1.16.32-1.38,1.27-.63,1.48v1.48l.63,1.28.85.74.74.31.64,1.06V77.35l.53,12.18.21,11.12.21.84.74.11,1.27-.95.95-1.17-1.16-32.94L146,63.47V61.78Zm-1.7-.95-.63.64-.85.42-.85-.11-.84-1.06.21-1.05L144,56.8l1.17.21.74.85Z"/><path class="cls-1" d="M120,59.87l.53-1.38V57.12l-.21-.85-.53-.85-1.06-1.06-1.48-.74h-1.17l-1.06.21-.84.43-1.28,1.48L112.59,57l.1,1.27.43,1.06.74,1.06,1.27,1.16L115,67.39l.32,6.46.21,21.92-.32.43h-.63l-1.06-.74-8.79-7.84-.21-.53-.21-5.93-.32-.74L90.56,68.13l-.74-.95.1-1.91-.21-.85-.53-1.05-.74-.75-1.59-.84-1.17-.11-1.37.21-1.17.64-.74.74-.63,1.8.1,1.8.53,1.27.74.74,1.49.74,2,.22.63.31,13.14,12.18.21.53v5.72l.42.74,3.5,3,7.94,7.63,1.06.1,1.38-.74h.53l.21.21.63,9.85v6l-.09,0a35.52,35.52,0,0,1-1.3,13.18l2.88-2.15,2.33-2.11L120,113.46l-1.27-31-.21-14.62-.32-5.93.11-.42ZM87.06,66.33l-1,.74-.85-.1-.63-.75.1-1,.43-.53.63-.32.74.11.74,1Zm30.82-7.94-.32.31-1,.32-1-.21-.53-.74.21-1,.74-.75,1.06-.21.85.74.1,1Z"/><path class="cls-1" d="M151.78,63.15l-.64,1.06-1.59,1.7-.21.53v2l.42.85.74-.22,3.92-3.7.53-1.06L154.74,62l.11-3.81,1.48-1.28,1.06-2-.11-1.48-.63-1.17-1-1.06-.74-.31-2-.11-1.16.42-.85.85-.64,1.17-.1,1.48.53,1.48,1.16,1.49.21.63v2.23ZM152.83,53l.85-.43.64.11.84.74.11,1.06-.85,1.06-.42.21h-.74l-1.06-.85-.11-.85Z"/><polygon class="cls-1" points="134.3 111.45 134.62 111.98 135.15 111.87 138.11 109.54 138.54 108.91 138.11 92.49 137.69 84.76 137.48 72.37 136.63 58.39 136.63 55.21 137.16 51.93 137.79 50.02 138.43 48.64 139.59 46.95 141.82 44.94 142.88 44.3 144.57 43.66 147.22 43.24 150.5 43.24 154.11 43.66 158.34 44.94 161.63 47.05 164.38 50.02 166.39 53.52 166.92 53.94 170.73 53.83 173.06 54.05 175.61 54.57 178.78 55.84 180.69 57.12 184.4 60.51 184.82 60.51 186.62 58.92 186.51 58.28 184.61 56.16 180.8 53.2 177.62 51.29 176.03 50.66 172.64 49.91 167.56 49.81 163 44.83 160.46 42.82 157.28 41.02 153.58 39.75 150.5 39.32 147.33 39.32 144.25 39.85 142.35 40.49 140.23 41.55 137.79 43.35 136.21 44.94 134.94 46.74 133.66 49.38 133.03 51.5 132.6 54.57 133.56 80.2 134.3 111.45"/><polygon class="cls-1" points="35.91 120.24 36.33 121.19 36.86 120.98 37.07 120.35 37.7 116.43 39.08 111.66 40.25 108.7 42.05 105.41 44.8 101.71 46.92 99.48 50.73 96.09 52.64 94.72 54.86 93.44 55.71 92.39 55.29 90.8 54.86 87.41 55.08 82.75 55.6 80.42 56.56 77.88 57.72 75.97 59.31 74.17 62.07 71.73 64.82 70.14 68.74 68.66 72.87 67.81 73.61 66.86 75.2 62.84 77.53 58.7 80.5 55.42 83.25 53.3 86.43 51.93 88.97 51.19 93.31 50.76 95.85 50.97 96.49 50.55 97.76 48.75 99.88 46.63 102.1 45.04 103.27 44.41 104.86 43.88 108.99 43.13 111.95 43.24 114.6 43.88 117.67 45.47 120.53 48.22 122.01 50.87 122.54 52.46 122.97 55.53 123.28 61.03 123.39 69.93 123.81 80.63 124.03 92.92 124.45 100.75 124.87 120.03 125.72 120.03 129.32 116.96 129.75 116.43 129.64 107.85 129 94.82 128.37 73.32 128.26 60.82 127.94 54.57 127.42 51.29 126.36 48.33 124.98 45.89 123.28 43.77 121.27 41.76 119.15 40.28 116.4 38.9 114.81 38.37 111.95 37.95 109.2 37.95 106.55 38.26 104.22 38.9 101.47 40.17 99.45 41.55 97.12 43.66 93.84 47.37 89.5 47.48 86.74 47.9 83.78 48.85 80.6 50.44 78.17 52.24 74.99 55.63 73.4 58.07 71.6 61.99 71.17 63.68 70.75 64.21 70.33 64.42 68.53 64.42 65.88 64.95 63.44 65.69 60.9 67.07 57.62 69.61 55.71 71.63 54.02 74.17 52.74 76.82 51.9 79.36 51.26 83.59 51.26 86.67 51.9 89.95 51.79 90.69 46.92 94.4 43 98.53 40.03 102.77 37.6 107.32 36.12 111.66 35.59 115.05 35.69 118.97 35.91 120.24"/><polygon class="cls-2" points="164.68 142.22 165.68 142.21 164.68 142.21 164.68 142.22"/><polygon class="cls-2" points="165.68 142.21 164.68 142.22 164.68 142.21 163.25 142.21 181.76 123.14 181.76 124.18 182.8 124.18 182.8 108.33 182.69 108.33 178.88 111.83 168.5 122.1 153.88 135.23 144.45 142.96 137.15 148.47 136.51 149.11 136.3 149.64 136.51 167.22 137.04 167.22 158.86 167.22 159.28 167.22 159.18 155.14 159.09 154.06 163.73 154.06 181.76 153.87 181.76 142.21 165.68 142.21"/><polygon class="cls-2" points="182.8 108.33 182.8 124.24 181.76 124.24 181.76 142.21 181.76 153.83 181.76 171.98 182.8 171.98 197.22 171.98 197.22 124.24 197.22 108.33 182.8 108.33"/><rect class="cls-3" x="202.38" y="83.99" width="2.98" height="112.33"/><rect class="cls-4" x="202.38" y="83.99" width="2.98" height="112.33"/><rect class="cls-5" x="202.38" y="83.99" width="2.98" height="112.33"/><polygon class="cls-6" points="224.53 176.22 205.36 196.31 205.36 83.99 224.53 83.99 224.53 176.22"/><polygon class="cls-7" points="224.53 176.22 205.36 196.31 205.36 83.99 224.53 83.99 224.53 176.22"/><polygon class="cls-7" points="224.53 176.22 205.36 196.31 205.36 83.99 224.53 83.99 224.53 176.22"/><polygon class="cls-7" points="224.53 176.22 205.36 196.31 205.36 83.99 224.53 83.99 224.53 176.22"/><polygon class="cls-1" points="224.53 176.22 205.36 196.31 205.36 83.99 224.53 83.99 224.53 176.22"/><path class="cls-2" d="M191.63,48.54c.3.22.44.35.59.45,2.53,1.73,5.07,3.47,7.61,5.19.4.27.55.44.19.91l-1.79,2.37,10.63,11.16-1.7,2.26,6.11-6.55c.45-.49.77-.59,1.35-.16,1.44,1.08,2.94,2.08,4.42,3.1.81.56,1.63,1.1,2.57,1.74,1.38-12.42,2.74-24.68,4.13-37.1Z"/><path class="cls-2" d="M198.23,57.46l-.06-.07c-37.9,46.83-114.08,127-179.1,118.84-6-.64-13.57-3.5-19.07-5.51,2,2.2,9.48,5.15,12.18,6.67,34.46,15.12,73.55,2.1,102.42-19.06C148.53,134.42,182,104,207.16,70.88l1.7-2.26Z"/><path class="cls-2" d="M229.49,44.77,227,67.47A111.26,111.26,0,0,1,41,189.6a85.18,85.18,0,0,1-19.94-2.9,127.22,127.22,0,0,0,22.12,29.68A126.75,126.75,0,0,0,229.49,44.77Z"/><path class="cls-2" d="M19.16,170.59h.09a71,71,0,0,0,11.49.49A111.25,111.25,0,0,1,199.85,38l15.4-7.51a126.83,126.83,0,0,0-201.86,139A37.25,37.25,0,0,0,19.16,170.59Z"/><rect class="cls-2" x="176.45" y="164.37" width="0.57" height="3.2"/><rect class="cls-2" x="176.45" y="170.55" width="0.57" height="3.2"/><rect class="cls-2" x="176.45" y="195.8" width="0.57" height="3.2"/><rect class="cls-2" x="176.45" y="189.6" width="0.57" height="3.2"/><rect class="cls-2" x="176.45" y="183.23" width="0.57" height="3.2"/><rect class="cls-2" x="168.53" y="164.37" width="0.57" height="3.2" transform="translate(337.63 331.93) rotate(-180)"/><rect class="cls-2" x="168.53" y="170.55" width="0.57" height="3.2" transform="translate(337.63 344.3) rotate(-180)"/><rect class="cls-2" x="161.88" y="164.37" width="0.57" height="3.2" transform="translate(324.34 331.93) rotate(-180)"/><rect class="cls-2" x="161.88" y="170.55" width="0.57" height="3.2" transform="translate(324.34 344.3) rotate(-180)"/><rect class="cls-2" x="168.53" y="195.8" width="0.57" height="3.2" transform="translate(337.63 394.8) rotate(-180)"/><rect class="cls-2" x="168.53" y="189.6" width="0.57" height="3.2" transform="translate(337.63 382.4) rotate(-180)"/><rect class="cls-2" x="168.53" y="183.23" width="0.57" height="3.2" transform="translate(337.63 369.67) rotate(-180)"/><path class="cls-2" d="M176.74,201.74c-.59,0-1,.67-1,1.6s.43,1.6,1,1.6,1-.67,1-1.6S177.33,201.74,176.74,201.74Zm0,2.76c-.17,0-.48-.44-.48-1.16s.31-1.16.48-1.16.48.44.48,1.16S176.91,204.5,176.74,204.5Z"/><path class="cls-2" d="M176.74,176.86c-.59,0-1,.68-1,1.61s.43,1.6,1,1.6,1-.68,1-1.6S177.33,176.86,176.74,176.86Zm0,2.77c-.17,0-.48-.44-.48-1.16s.31-1.17.48-1.17.48.45.48,1.17S176.91,179.63,176.74,179.63Z"/><path class="cls-2" d="M189.56,176.86c-.59,0-1,.68-1,1.61s.43,1.6,1,1.6,1-.68,1-1.6S190.15,176.86,189.56,176.86Zm0,2.77c-.17,0-.48-.44-.48-1.16s.31-1.17.48-1.17.48.45.48,1.17S189.73,179.63,189.56,179.63Z"/><path class="cls-2" d="M183.15,176.86c-.59,0-1,.68-1,1.61s.43,1.6,1,1.6,1-.68,1-1.6S183.74,176.86,183.15,176.86Zm0,2.77c-.17,0-.48-.44-.48-1.16s.31-1.17.48-1.17.48.45.48,1.17S183.32,179.63,183.15,179.63Z"/><path class="cls-2" d="M196,180.07c.59,0,1-.68,1-1.6s-.43-1.61-1-1.61-1,.68-1,1.61S195.38,180.07,196,180.07Zm0-2.77c.17,0,.48.45.48,1.17s-.31,1.16-.48,1.16-.48-.44-.48-1.16S195.8,177.3,196,177.3Z"/><path class="cls-2" d="M189.56,183.23c-.59,0-1,.68-1,1.6s.43,1.6,1,1.6,1-.67,1-1.6S190.15,183.23,189.56,183.23Zm0,2.76c-.17,0-.48-.44-.48-1.16s.31-1.16.48-1.16.48.44.48,1.16S189.73,186,189.56,186Z"/><path class="cls-2" d="M183.15,183.23c-.59,0-1,.68-1,1.6s.43,1.6,1,1.6,1-.67,1-1.6S183.74,183.23,183.15,183.23Zm0,2.76c-.17,0-.48-.44-.48-1.16s.31-1.16.48-1.16.48.44.48,1.16S183.32,186,183.15,186Z"/><path class="cls-2" d="M196,183.23c-.59,0-1,.68-1,1.6s.43,1.6,1,1.6,1-.67,1-1.6S196.56,183.23,196,183.23Zm0,2.76c-.17,0-.48-.44-.48-1.16s.31-1.16.48-1.16.48.44.48,1.16S196.14,186,196,186Z"/><path class="cls-2" d="M189.56,189.6c-.59,0-1,.67-1,1.6s.43,1.6,1,1.6,1-.67,1-1.6S190.15,189.6,189.56,189.6Zm0,2.76c-.17,0-.48-.44-.48-1.16s.31-1.16.48-1.16.48.44.48,1.16S189.73,192.36,189.56,192.36Z"/><path class="cls-2" d="M183.15,189.6c-.59,0-1,.67-1,1.6s.43,1.6,1,1.6,1-.67,1-1.6S183.74,189.6,183.15,189.6Zm0,2.76c-.17,0-.48-.44-.48-1.16s.31-1.16.48-1.16.48.44.48,1.16S183.32,192.36,183.15,192.36Z"/><path class="cls-2" d="M196,189.6c-.59,0-1,.67-1,1.6s.43,1.6,1,1.6,1-.67,1-1.6S196.56,189.6,196,189.6Zm0,2.76c-.17,0-.48-.44-.48-1.16s.31-1.16.48-1.16.48.44.48,1.16S196.14,192.36,196,192.36Z"/><path class="cls-2" d="M189.56,195.8c-.59,0-1,.67-1,1.6s.43,1.6,1,1.6,1-.67,1-1.6S190.15,195.8,189.56,195.8Zm0,2.76c-.17,0-.48-.44-.48-1.16s.31-1.16.48-1.16.48.44.48,1.16S189.73,198.56,189.56,198.56Z"/><path class="cls-2" d="M183.15,195.8c-.59,0-1,.67-1,1.6s.43,1.6,1,1.6,1-.67,1-1.6S183.74,195.8,183.15,195.8Zm0,2.76c-.17,0-.48-.44-.48-1.16s.31-1.16.48-1.16.48.44.48,1.16S183.32,198.56,183.15,198.56Z"/><path class="cls-2" d="M189.56,201.74c-.59,0-1,.67-1,1.6s.43,1.6,1,1.6,1-.67,1-1.6S190.15,201.74,189.56,201.74Zm0,2.76c-.17,0-.48-.44-.48-1.16s.31-1.16.48-1.16.48.44.48,1.16S189.73,204.5,189.56,204.5Z"/><path class="cls-2" d="M183.15,201.74c-.59,0-1,.67-1,1.6s.43,1.6,1,1.6,1-.67,1-1.6S183.74,201.74,183.15,201.74Zm0,2.76c-.17,0-.48-.44-.48-1.16s.31-1.16.48-1.16.48.44.48,1.16S183.32,204.5,183.15,204.5Z"/><path class="cls-2" d="M176.74,208.05c-.59,0-1,.67-1,1.6s.43,1.6,1,1.6,1-.67,1-1.6S177.33,208.05,176.74,208.05Zm0,2.76c-.17,0-.48-.44-.48-1.16s.31-1.16.48-1.16.48.44.48,1.16S176.91,210.81,176.74,210.81Z"/><path class="cls-2" d="M183.15,208.05c-.59,0-1,.67-1,1.6s.43,1.6,1,1.6,1-.67,1-1.6S183.74,208.05,183.15,208.05Zm0,2.76c-.17,0-.48-.44-.48-1.16s.31-1.16.48-1.16.48.44.48,1.16S183.32,210.81,183.15,210.81Z"/><path class="cls-2" d="M196,195.8c-.59,0-1,.67-1,1.6s.43,1.6,1,1.6,1-.67,1-1.6S196.56,195.8,196,195.8Zm0,2.76c-.17,0-.48-.44-.48-1.16s.31-1.16.48-1.16.48.44.48,1.16S196.14,198.56,196,198.56Z"/><path class="cls-2" d="M168.82,201.74c-.6,0-1,.67-1,1.6s.42,1.6,1,1.6,1-.67,1-1.6S169.41,201.74,168.82,201.74Zm0,2.76c-.17,0-.48-.44-.48-1.16s.31-1.16.48-1.16.47.44.47,1.16S169,204.5,168.82,204.5Z"/><path class="cls-2" d="M168.82,176.86c-.6,0-1,.68-1,1.61s.42,1.6,1,1.6,1-.68,1-1.6S169.41,176.86,168.82,176.86Zm0,2.77c-.17,0-.48-.44-.48-1.16s.31-1.17.48-1.17.47.45.47,1.17S169,179.63,168.82,179.63Z"/><path class="cls-2" d="M156,176.86c-.6,0-1,.68-1,1.61s.43,1.6,1,1.6,1-.68,1-1.6S156.59,176.86,156,176.86Zm0,2.77c-.17,0-.48-.44-.48-1.16s.31-1.17.48-1.17.47.45.47,1.17S156.16,179.63,156,179.63Z"/><path class="cls-2" d="M162.41,176.86c-.6,0-1,.68-1,1.61s.43,1.6,1,1.6,1-.68,1-1.6S163,176.86,162.41,176.86Zm0,2.77c-.17,0-.48-.44-.48-1.16s.31-1.17.48-1.17.47.45.47,1.17S162.57,179.63,162.41,179.63Z"/><path class="cls-2" d="M149.58,176.86c-.59,0-1,.68-1,1.61s.43,1.6,1,1.6,1-.68,1-1.6S150.18,176.86,149.58,176.86Zm0,2.77c-.16,0-.47-.44-.47-1.16s.31-1.17.47-1.17.48.45.48,1.17S149.75,179.63,149.58,179.63Z"/><path class="cls-2" d="M156,170.55c-.6,0-1,.67-1,1.6s.43,1.6,1,1.6,1-.67,1-1.6S156.59,170.55,156,170.55Zm0,2.76c-.17,0-.48-.44-.48-1.16s.31-1.16.48-1.16.47.44.47,1.16S156.16,173.31,156,173.31Z"/><path class="cls-2" d="M149.58,170.55c-.59,0-1,.67-1,1.6s.43,1.6,1,1.6,1-.67,1-1.6S150.18,170.55,149.58,170.55Zm0,2.76c-.16,0-.47-.44-.47-1.16s.31-1.16.47-1.16.48.44.48,1.16S149.75,173.31,149.58,173.31Z"/><path class="cls-2" d="M144.23,173.75c.6,0,1-.67,1-1.6s-.43-1.6-1-1.6-1,.67-1,1.6S143.64,173.75,144.23,173.75Zm0-2.76c.17,0,.48.44.48,1.16s-.31,1.16-.48,1.16-.47-.44-.47-1.16S144.07,171,144.23,171Z"/><path class="cls-2" d="M137.82,170.55c-.59,0-1,.67-1,1.6s.43,1.6,1,1.6,1-.67,1-1.6S138.42,170.55,137.82,170.55Zm0,2.76c-.16,0-.47-.44-.47-1.16s.31-1.16.47-1.16.48.44.48,1.16S138,173.31,137.82,173.31Z"/><path class="cls-2" d="M144.23,180.07c.6,0,1-.68,1-1.6s-.43-1.61-1-1.61-1,.68-1,1.61S143.64,180.07,144.23,180.07Zm0-2.77c.17,0,.48.45.48,1.17s-.31,1.16-.48,1.16-.47-.44-.47-1.16S144.07,177.3,144.23,177.3Z"/><path class="cls-2" d="M137.82,176.86c-.59,0-1,.68-1,1.61s.43,1.6,1,1.6,1-.68,1-1.6S138.42,176.86,137.82,176.86Zm0,2.77c-.16,0-.47-.44-.47-1.16s.31-1.17.47-1.17.48.45.48,1.17S138,179.63,137.82,179.63Z"/><path class="cls-2" d="M144.23,186.43c.6,0,1-.67,1-1.6s-.43-1.6-1-1.6-1,.68-1,1.6S143.64,186.43,144.23,186.43Zm0-2.76c.17,0,.48.44.48,1.16s-.31,1.16-.48,1.16-.47-.44-.47-1.16S144.07,183.67,144.23,183.67Z"/><path class="cls-2" d="M137.82,183.23c-.59,0-1,.68-1,1.6s.43,1.6,1,1.6,1-.67,1-1.6S138.42,183.23,137.82,183.23Zm0,2.76c-.16,0-.47-.44-.47-1.16s.31-1.16.47-1.16.48.44.48,1.16S138,186,137.82,186Z"/><path class="cls-2" d="M144.23,192.8c.6,0,1-.67,1-1.6s-.43-1.6-1-1.6-1,.67-1,1.6S143.64,192.8,144.23,192.8Zm0-2.76c.17,0,.48.44.48,1.16s-.31,1.16-.48,1.16-.47-.44-.47-1.16S144.07,190,144.23,190Z"/><path class="cls-2" d="M137.82,189.6c-.59,0-1,.67-1,1.6s.43,1.6,1,1.6,1-.67,1-1.6S138.42,189.6,137.82,189.6Zm0,2.76c-.16,0-.47-.44-.47-1.16s.31-1.16.47-1.16.48.44.48,1.16S138,192.36,137.82,192.36Z"/><path class="cls-2" d="M156,183.23c-.6,0-1,.68-1,1.6s.43,1.6,1,1.6,1-.67,1-1.6S156.59,183.23,156,183.23Zm0,2.76c-.17,0-.48-.44-.48-1.16s.31-1.16.48-1.16.47.44.47,1.16S156.16,186,156,186Z"/><path class="cls-2" d="M162.41,183.23c-.6,0-1,.68-1,1.6s.43,1.6,1,1.6,1-.67,1-1.6S163,183.23,162.41,183.23Zm0,2.76c-.17,0-.48-.44-.48-1.16s.31-1.16.48-1.16.47.44.47,1.16S162.57,186,162.41,186Z"/><path class="cls-2" d="M149.58,183.23c-.59,0-1,.68-1,1.6s.43,1.6,1,1.6,1-.67,1-1.6S150.18,183.23,149.58,183.23Zm0,2.76c-.16,0-.47-.44-.47-1.16s.31-1.16.47-1.16.48.44.48,1.16S149.75,186,149.58,186Z"/><path class="cls-2" d="M156,189.6c-.6,0-1,.67-1,1.6s.43,1.6,1,1.6,1-.67,1-1.6S156.59,189.6,156,189.6Zm0,2.76c-.17,0-.48-.44-.48-1.16s.31-1.16.48-1.16.47.44.47,1.16S156.16,192.36,156,192.36Z"/><path class="cls-2" d="M162.41,189.6c-.6,0-1,.67-1,1.6s.43,1.6,1,1.6,1-.67,1-1.6S163,189.6,162.41,189.6Zm0,2.76c-.17,0-.48-.44-.48-1.16s.31-1.16.48-1.16.47.44.47,1.16S162.57,192.36,162.41,192.36Z"/><path class="cls-2" d="M149.58,189.6c-.59,0-1,.67-1,1.6s.43,1.6,1,1.6,1-.67,1-1.6S150.18,189.6,149.58,189.6Zm0,2.76c-.16,0-.47-.44-.47-1.16s.31-1.16.47-1.16.48.44.48,1.16S149.75,192.36,149.58,192.36Z"/><path class="cls-2" d="M156,195.8c-.6,0-1,.67-1,1.6s.43,1.6,1,1.6,1-.67,1-1.6S156.59,195.8,156,195.8Zm0,2.76c-.17,0-.48-.44-.48-1.16s.31-1.16.48-1.16.47.44.47,1.16S156.16,198.56,156,198.56Z"/><path class="cls-2" d="M162.41,195.8c-.6,0-1,.67-1,1.6s.43,1.6,1,1.6,1-.67,1-1.6S163,195.8,162.41,195.8Zm0,2.76c-.17,0-.48-.44-.48-1.16s.31-1.16.48-1.16.47.44.47,1.16S162.57,198.56,162.41,198.56Z"/><path class="cls-2" d="M156,201.74c-.6,0-1,.67-1,1.6s.43,1.6,1,1.6,1-.67,1-1.6S156.59,201.74,156,201.74Zm0,2.76c-.17,0-.48-.44-.48-1.16s.31-1.16.48-1.16.47.44.47,1.16S156.16,204.5,156,204.5Z"/><path class="cls-2" d="M156,208.05c-.6,0-1,.67-1,1.6s.43,1.6,1,1.6,1-.67,1-1.6S156.59,208.05,156,208.05Zm0,2.76c-.17,0-.48-.44-.48-1.16s.31-1.16.48-1.16.47.44.47,1.16S156.16,210.81,156,210.81Z"/><path class="cls-2" d="M162.41,201.74c-.6,0-1,.67-1,1.6s.43,1.6,1,1.6,1-.67,1-1.6S163,201.74,162.41,201.74Zm0,2.76c-.17,0-.48-.44-.48-1.16s.31-1.16.48-1.16.47.44.47,1.16S162.57,204.5,162.41,204.5Z"/><path class="cls-2" d="M168.82,208.05c-.6,0-1,.67-1,1.6s.42,1.6,1,1.6,1-.67,1-1.6S169.41,208.05,168.82,208.05Zm0,2.76c-.17,0-.48-.44-.48-1.16s.31-1.16.48-1.16.47.44.47,1.16S169,210.81,168.82,210.81Z"/><path class="cls-2" d="M162.41,208.05c-.6,0-1,.67-1,1.6s.43,1.6,1,1.6,1-.67,1-1.6S163,208.05,162.41,208.05Zm0,2.76c-.17,0-.48-.44-.48-1.16s.31-1.16.48-1.16.47.44.47,1.16S162.57,210.81,162.41,210.81Z"/><path class="cls-2" d="M149.58,195.8c-.59,0-1,.67-1,1.6s.43,1.6,1,1.6,1-.67,1-1.6S150.18,195.8,149.58,195.8Zm0,2.76c-.16,0-.47-.44-.47-1.16s.31-1.16.47-1.16.48.44.48,1.16S149.75,198.56,149.58,198.56Z"/><path class="cls-2" d="M149.58,201.74c-.59,0-1,.67-1,1.6s.43,1.6,1,1.6,1-.67,1-1.6S150.18,201.74,149.58,201.74Zm0,2.76c-.16,0-.47-.44-.47-1.16s.31-1.16.47-1.16.48.44.48,1.16S149.75,204.5,149.58,204.5Z"/><path class="cls-2" d="M144.47,195.8c-.59,0-1,.67-1,1.6s.43,1.6,1,1.6,1-.67,1-1.6S145.06,195.8,144.47,195.8Zm0,2.76c-.17,0-.48-.44-.48-1.16s.31-1.16.48-1.16.48.44.48,1.16S144.64,198.56,144.47,198.56Z"/><path class="cls-2" d="M354.19,105.79a16.63,16.63,0,0,1,.12,2v2q0,14.37-10.75,27.78l-3.26,3.86q-2.54,2.53-4.05,3.93c-1,.92-3.24,2.67-6.7,5.25a47.53,47.53,0,0,1-11.05,6.16,34.47,34.47,0,0,1-12.62,2.29q-14.85,0-20-6.76t-5.73-7.55c-.37-.52-1.13-1.77-2.3-3.74a27.66,27.66,0,0,1-2.84-8.64,51.75,51.75,0,0,1-1.08-9.29A24.57,24.57,0,0,1,276.72,112a40.59,40.59,0,0,1,6.58-9.6A60.32,60.32,0,0,1,293,94.32l1.68-1L297.07,95a26.54,26.54,0,0,0-5.43,16.54,29.22,29.22,0,0,0,2.17,11.9,70.39,70.39,0,0,0,3.38,6.88q1.2,2,3.81,5.5a28.61,28.61,0,0,0,6.27,6.15,27.83,27.83,0,0,0,6.77,3.75,17.66,17.66,0,0,0,5.85,1.08,14.47,14.47,0,0,0,8.58-2.65,17,17,0,0,0,5.79-7.85,35.32,35.32,0,0,0,2.05-12.92c0-1.37,0-2.46-.12-3.26s-.28-2.46-.6-5a39.42,39.42,0,0,0-1.51-6.95,46.18,46.18,0,0,0-3.68-8,37.55,37.55,0,0,0-6.88-8.81,25.71,25.71,0,0,0-8.09-5.56A48,48,0,0,0,309.75,84a18.3,18.3,0,0,0-4.11-.42,34.8,34.8,0,0,0-5.19.42c-1.85.28-3.5.54-4.95.79l-1.93.36L292,82.72,296.83,80a41.56,41.56,0,0,1,3.86-2.18q2.18-1.08,7.55-3.62a25.6,25.6,0,0,1,11.05-2.53,43.2,43.2,0,0,1,7.37.84q4.57.86,15.09,7.19T354.19,105.79Z"/><path class="cls-2" d="M419.87,113.27a39.69,39.69,0,0,1,1.69,10.51,20.18,20.18,0,0,1-4,12.5,38.29,38.29,0,0,1-11.11,9.6,78,78,0,0,1-14.31,6.76l-1.69-2.29,2.3-1.33q6.51-4,9.41-7.61A13.07,13.07,0,0,0,405,133a23.08,23.08,0,0,0-.54-4.65,68.78,68.78,0,0,0-2.62-8.33q-2.1-5.74-5.14-7.61a10.33,10.33,0,0,0-5.08-1.87,7.29,7.29,0,0,0-5,2,9.07,9.07,0,0,0-2.87,5.19,47.1,47.1,0,0,0-.6,8.45v28.86l.49,23.07a69.75,69.75,0,0,0-8,2,62.64,62.64,0,0,0-8.21,3.2l-.36-27.05v-6q0-19.57-.37-24a49,49,0,0,0-1.71-9.17c-.89-3.18-2.28-4.77-4.14-4.77a8.68,8.68,0,0,0-4.27,1.57l-.73.6-1.22-2.78,20.65-13.76a3.11,3.11,0,0,1,2.05-.6,3.65,3.65,0,0,1,3.8,2.29,11,11,0,0,1,.91,4l.36,3.63v3.62l4.59-3.38q13.77-10.14,18.72-10.14,3.74,0,8,5l1.46,1.69A32.55,32.55,0,0,1,419.87,113.27Z"/><path class="cls-2" d="M470,98.54q-4,3.51-7.34,6.77a90.31,90.31,0,0,0-6.49,7.12h-5V135l.74,4.6a12.25,12.25,0,0,0,1.55,5.15A4.32,4.32,0,0,0,456,146.6a11.62,11.62,0,0,0,2,.36,6.06,6.06,0,0,0,2.11-.48l1.23,2.42L457,152.16a37.19,37.19,0,0,1-3.75,2.29l-.72.48L449,156.87c-2.81,1.52-5,2.29-6.52,2.29-2.65,0-4.57-1.92-5.73-5.77a45.39,45.39,0,0,1-2-11.28q-.25-5.52-.24-20l.48-9.71h-3.75c-1,0-2.49.08-4.58.24s-3.71.24-4.84.24l6.65-8.65,1.81-2.43L432,99.39l3.74.48.36-6.64L440.88,90l4.84-3.14,3.5-2.3,3.5-2.29-.85,17.15h7.61q2.06,0,4.71-.24C466,99,467.89,98.78,470,98.54Z"/><path class="cls-2" d="M488.82,147.54A133.14,133.14,0,0,0,471.92,159V138.86l-1.09-17.5q0-9.52-4.95-9.53a10.68,10.68,0,0,0-3.38.72l-1.09.48-1.69-2.41,6.64-3.75q3.75-2.53,7.61-5.25t5.31-3.68a4.75,4.75,0,0,1,2.54-1,14.66,14.66,0,0,1,2.05.37,3.9,3.9,0,0,1,2.66,2.41q1,2.06,1,7.24l.85,19Zm1.69-64.21-10.38,8.09a6.72,6.72,0,0,1-4.47,1.33,12.11,12.11,0,0,1-2.78-.37A7,7,0,0,1,470,90.94a14.75,14.75,0,0,1-2.9-3.63l-.73-1.57a128.9,128.9,0,0,1,10.27-8.09l3.86-2.41,1.69,1.81a26.09,26.09,0,0,0,4.17,4.35A12.86,12.86,0,0,0,490.51,83.33Z"/><path class="cls-2" d="M607.52,148.73a146.07,146.07,0,0,0-12.68,8.49l-1.21,1-1.08,1-.73-7.25q-1.44-12.43-2.53-18.59a61.82,61.82,0,0,0-2.72-10.57q-1.64-4.4-5.25-4.4a8.43,8.43,0,0,0-4.71,1.75,34.14,34.14,0,0,0-5.38,4.77,113.45,113.45,0,0,0-7.36,9,150.61,150.61,0,0,0-10.33,16.43l-2.17,4-2.29-.48a62.54,62.54,0,0,0-.37-7.19q-.36-3.07-1.32-8.75l-.25-1.93-.72-4-.24-1.33-1-4.71a10,10,0,0,0-2.29-4.65,4.93,4.93,0,0,0-3.63-1.63,6.32,6.32,0,0,0-3.74,1.21l-2.65,1.93a79.61,79.61,0,0,0-7.19,7.13,127.43,127.43,0,0,0-8.27,11.53,111.6,111.6,0,0,0-9.54,17.69h-3.5l.12-6V134.77q0-10.76-.85-14.37a14,14,0,0,0-2.77-5.92c-1.29-1.53-2.46-2.29-3.51-2.29a2.73,2.73,0,0,0-2.29,1.57l-2.05-2.66,7.6-5.07,8.34-6,1-.72a5.14,5.14,0,0,1,2.78-1.09,3.87,3.87,0,0,1,4.41,2q1.62,2.67,2.47,9.9l.12,1.45,1.21,13,.24,3.14q5.67-7.36,10.75-12.75t14-13.46l.36-.36,1.57-1.57a6,6,0,0,1,4.22-2c2.1,0,3.75,1.08,4.95,3.26a35,35,0,0,1,3.14,9,118.08,118.08,0,0,1,2.18,15.1l.24,3.5q6.64-8.64,12.56-15.09t8.33-8.76c1.61-1.54,3.42-3.11,5.43-4.69a9.41,9.41,0,0,1,5.68-2.37q4.11,0,5.13,2.79a43,43,0,0,1,1.51,4.78c.32,1.34.89,4.15,1.69,8.43L605,125.7l.49,3.15.24,1.82.6,5.58.73,7.51Z"/><path class="cls-2" d="M683.59,149,669,159.16c-.56-1.71-1.05-3-1.45-4s-1.33-3-2.77-6a35.73,35.73,0,0,0-5.62-8.43,21.92,21.92,0,0,0-7.18-5.55A37.29,37.29,0,0,0,646,132.9a36.67,36.67,0,0,0-4.65-.85,33.75,33.75,0,0,0-3.56-.3,22.72,22.72,0,0,0-3.8.36,5.66,5.66,0,0,0-3.33,1.69,4.39,4.39,0,0,0-1.2,3,10.57,10.57,0,0,0,.6,2.3q.6,1.8,3.87,4a14.18,14.18,0,0,0,5.91,2.6c1.77.24,2.9.36,3.38.36h1.57a19.27,19.27,0,0,0,8.7-1.81L655,146l-.24.24-5.67,5.31a37.72,37.72,0,0,1-7.67,5.92,14.35,14.35,0,0,1-6.82,1.69h-2.78c-5.07-.57-9-2-11.71-4.24a10.1,10.1,0,0,1-4.11-8q0-2.66,2.6-7.5t11.29-10.29a46.27,46.27,0,0,1,10.38-4.24l1.57-.24,2.42-.6,4.22-1L647,120.67a30.53,30.53,0,0,0-6.52-7.63,10.27,10.27,0,0,0-6.16-2.54,7.87,7.87,0,0,0-4.23,1.2l-1-1.32,8.22-6.89a52.52,52.52,0,0,1,6-4.4,8.57,8.57,0,0,1,4.29-1.51q3.74,0,9.18,7.14t7.91,10.76c1.64,2.42,3.38,5.11,5.19,8s3.56,6,5.25,9.2,4,7.64,6.88,13.36Z"/><path class="cls-2" d="M774.64,147.93q-4.47,3.51-9.6,7c-3.42,2.34-6,3.42-7.67,3.26a6,6,0,0,1-5-2.44,92,92,0,0,1-5.8-8.91l-3.38-5.62-2.65-5H705.45l-.73,2.91a23.62,23.62,0,0,0-.84,2.54,23,23,0,0,0-.6,3.15l-.61,5.1-13.16,5.81a38.92,38.92,0,0,1-4.11,1.58c-1.69.57-3.22,1.09-4.58,1.58,1.36-2,2.81-4.27,4.34-6.76a111.24,111.24,0,0,0,5.92-11.89q3.61-8.15,6.76-15.33t6.94-15.57a114.39,114.39,0,0,0,5.5-14.07L714,84.65l2.3-6.88c.56-.24,1.46-.64,2.71-1.21a39.39,39.39,0,0,0,3.93-2c1.37-.8,2.69-1.53,4-2.17s2.62-1.29,4-1.93a2.86,2.86,0,0,1,2.41.12,4.15,4.15,0,0,1,2.18,2.65l1.32,4.59c.25.89.63,2.12,1.15,3.69s1.93,5.07,4.23,10.5,4.89,11.62,7.79,18.54,4.81,11.31,5.73,13.16,2.28,4.41,4,7.67a102.33,102.33,0,0,0,5.55,9.11q2.89,4.23,4.95,4.59l3.38.61Zm-39.37-23.06-13-30.79L709.68,125l10.86.24Z"/><path class="cls-2" d="M801.81,147.42l-3.93,2.66-3.81,2.53L784.9,159l.12-24.26q-.48-21.85-.48-26.44,0-7.11-.3-10.26t-.67-5.73a37,37,0,0,0-.72-4,8.65,8.65,0,0,0-1.15-2.6,2.63,2.63,0,0,0-2.35-1.21,3.34,3.34,0,0,0-2.66,1.33L775,83.69l.73-.6,14.5-9.54,3.66-2.18a6.51,6.51,0,0,1,3.05-.84q3.28,0,4,3.86l.24,2.17v8.57l.61,49.61Z"/></g></g></svg>