<svg xmlns="http://www.w3.org/2000/svg" viewBox="0 0 256.5 311.45"><defs><style>.cls-1,.cls-10{fill:#1e3e62;}.cls-1,.cls-2,.cls-7,.cls-8,.cls-9{fill-rule:evenodd;}.cls-2{fill:#ff6500;}.cls-3,.cls-9{fill:#0baf8f;}.cls-4{fill:#1a1a1a;}.cls-5{fill:#1d1d1b;}.cls-6{fill:#0b846d;}.cls-7{fill:#fff;}</style></defs><g id="Layer_2" data-name="Layer 2"><g id="Layer_1-2" data-name="Layer 1"><path class="cls-1" d="M114.82,114l-.43-.08-3.45-6.07-3.24-4.4-2-2.19L102,98.3l-2.51-1.77-2.61-1.47-5-2.41-4-1.36-1.16-.1-.83-.32-3-.31H77.34l-5.75.63-4.5,1.25-6.28,2.83L56.62,98.1l-4,3.55-2.93,3.25-3.66,5.44-1.26,2.51-1.25,3.25-1.36,5.44-.53,5.23V131l.53,4.39.42,1.16.31,1.78,1.78,5.12,2.62,5,1.78,2.61,3.24,4,4.08,4,1.36,1h1.36l8.9-4,10-5.55,1.78-1.26.31-.41-.21-.53-3.56-.52-4.29-1.36-2.62-1.36-1.77-1.26L65,141.32l-1.88-2.41L62,137,60.7,134.1l-.62-4v-3.35l.41-2.61.74-2.41,1.67-3.25L65,115.68l1.57-1.47,3-2.3,2.51-1.36,1.89-.63,3.55-.63,3.77.11,3.14.63,2.62,1,2.3,1.26,3.14,2.51,1.88,2,1.68,2.3,1.25,2.62.74,2.3.52,3.35v4.71L98,135.88l-.63,1.67v.63l.21.21.53-.1,1.15-1,1.57-.94,8.16-5.86,4.59-3.43A35.11,35.11,0,0,0,114.82,114Z"/><path class="cls-2" d="M72.22,140l.73.73,1,.63,1.77.31,1.57-.1,1.26-.42.73-.42,1.47-1.36,9.84-.1.73-.32.31-.94v-1.25l-.63-.42H81.22l-.53-.42-.42-.94-.94-1.16-1.88-1.15-1.15-.31-1.57.21-1.47.63L72,134.31l-.74,1.78V138l.32,1.05Zm2.51-3.14.73-.84.42-.21.94.11.94,1-.1,1.05-.94.63h-1l-.41-.21-.74-.84Z"/><polygon class="cls-2" points="93.98 132.53 94.19 132.22 94.3 130.23 93.88 129.6 82.05 129.6 81.64 129.91 81.43 130.54 81.53 132.42 82.26 133.05 90.74 132.95 93.46 132.74 93.98 132.53"/><path class="cls-2" d="M77.55,122.59l-1-1.47-.94-.84-1.68-.62H72.43l-.84.2-1.47.84-1.25,1.47-.53,1.88.21,1.89.74,1.36,1.57,1.36,1.88.52,1.57-.1.94-.42,1.57-1.47.42-.84.63-.52,14.86-.21.52-.52L93,123.32l-.31-.42-.52-.21-14.13.21Zm-3,2.3-.21.42-.63.52L73,126l-1-.31-.52-1,.31-1.15.94-.73,1.05.21.84,1Z"/><polygon class="cls-2" points="88.54 118.5 88.54 117.14 88.23 116.52 87.71 116.2 82.05 116.2 81.74 116.41 81.53 117.04 81.53 118.3 81.95 118.82 88.23 118.82 88.54 118.5"/><path class="cls-2" d="M106.44,174l.31-.62-.1-3.56-.31-.32h-.42l-.84.32-.63.52v2.51l-.31.53-8.58,8.16-1.68,1.26-.84.31-1.46-.21L89,180.78l-1.36-.42-1.67.21-1.26.73-.94,1.15-.32,1.26.11,1.67.63,1.26,1.57,1.05,2,.31,1.25-.31.94-.53.95-1,.31-.74.52-.42H94.4l.95-.31,2.09-1.78ZM88.65,185l-.63.63-.73.32-1.15-.42-.63-1.05v-.52l.31-.63,1.05-.84.84.11,1,1.15Z"/><path class="cls-2" d="M97.65,195.53l1.57.95,1.88.1.74-.21,1.15-.73,1.15-1.47V191l10.67-9.94.11-1.25L114.6,174l-.1-9.1-.52-.52-1,.31-.62.63.1,14.76-2.09,2.3-7.33,6.91-.63.1-.83-.31-1.89-.11-1,.42-1,.73-.73,1-.31.84v1.67l.31.94ZM98.9,192l.74-.84,1.15-.11.42.21.73.95-.1,1.36-1.16.94-1-.11-.74-.62-.2-.53Z"/><path class="cls-2" d="M121.62,194.07l.41-.84-.73-33.38-.42-.42-1,.31-.42.31-.42.74.42,13.29.1,18.42-.63,1.05L115,197.42l-3.45.1-1,.53-.84.94-.41,1.25v1.68l.21.73,1.15,1.47,1.88.73,1.78-.21,1.57-1,.94-1.78v-1.46l-.31-.84.1-.73Zm-7.23,7.43-.73.84-1.15.42-.94-.63-.32-.73v-.53l.63-1,.53-.32h.83l1.05.84.21.73Z"/><polygon class="cls-2" points="129.36 153.57 129.15 153.04 128.63 153.04 127.48 153.88 127.16 154.3 127.06 154.93 127.9 198.47 127.69 202.44 127.37 204.33 126.12 207.36 124.86 209.04 123.29 210.61 121.3 212.07 118.27 213.43 115.13 213.85 112.09 213.75 109.89 213.43 106.13 212.18 103.51 210.81 100.47 208.83 96.81 205.37 93.88 201.6 92.1 198.57 90.85 195.53 90.32 195.33 87.29 195.43 84.88 195.12 83.31 194.7 79.65 193.13 77.24 191.45 75.15 189.47 73.79 187.79 72.22 185.38 71.48 185.38 70.75 185.7 70.33 186.12 70.33 186.53 71.69 188.94 73.37 191.14 75.88 193.65 78.81 195.74 81.53 197 83.52 197.52 89.07 198.15 89.59 198.78 91.26 202.34 92.42 204.22 94.82 207.15 99.11 211.13 102.15 213.12 104.66 214.37 107.17 215.32 109.79 215.94 112.83 216.26 115.23 216.26 118.79 215.74 120.78 215.11 123.29 213.85 124.97 212.7 126.53 211.13 128 209.04 129.15 206.63 129.78 204.75 130.41 201.08 130.41 196.06 129.47 165.81 129.36 153.57"/><polygon class="cls-2" points="36.42 150.01 37.78 152.73 39.67 155.87 41.86 158.8 43.75 160.89 46.37 163.4 47.2 163.51 49.19 162.88 49.71 162.46 49.71 162.15 44.06 156.6 42.07 153.98 39.67 150.01 37.15 143.31 36.11 137.66 35.79 134.2 35.58 133.68 35.38 133.68 34.85 134.41 34.43 136.09 34.22 140.8 34.85 145.4 36.42 150.01"/><path class="cls-2" d="M64.37,79.05H62.8l-1.47.42L60,80.72l-.63,1.57v1.36L60,85.22l1.47,1.26,1.36.42h1.36l.73-.21,1.88-1.57h8.48l6.8.31.63-.73v-.84l-.31-1-.53-.52-1.15-.52-1.25-.21-11.93-.21-1.57-1.78Zm-.11,4.29-.84.84H62.8l-.74-.74v-.73l.95-.94.83.1.53.84Z"/><path class="cls-2" d="M68.76,78.31l1,.42,1.36.11,1.15-.32L74,77.37l.62-.21,7,.11.73.42,7,6.49,4.71,4.71,1,.62h.52l1-1.15.31-.73v-1l-.42-.73-13.29-12-.52-.21-1.57-.1-3.46.21L75,73.6,73.68,72l-1.15-.94-1-.42H70.12l-1.25.42-.53.32-1.15,1.36-.42,1.46v1.26l.84,1.78Zm.84-3.87.63-.73h1l.63.52-.1.94-.94.84-.63-.1-.63-.74Z"/><path class="cls-2" d="M149,93.49l.94,1.26L177,64l-.21-.74-1.25-.73h-.42l-.63.52-22.08,25-.32-.53-.42-9.62.11-4.19,9.73-10.57.73-.32.95.21h1.57l1.25-.62.63-.74.42-.83v-2.1l-.21-.63-1.36-1.67-1.36-.73-1.47-.11-1.36.74-.73.62-.73,1.26-.21,2.93-11,11.09-.21,1.57.1,7Zm13-34.64.73-.74.52-.2.94.1.84,1.05-.1.83-1,.84-1.15-.1-.84-1Z"/><path class="cls-2" d="M97.75,58l-.62-1.67-.74-.84L95,54.77l-1.15-.32-1.15.11-1,.41-1.25,1.26L89.9,57.7l-.21,1.46.42,1.36,1,1.26,3,2.2L107,75.49l.21.42V80.2l.32,6,.52.42,2.09-.1.32-.42V73.4l-.21-.42-6.6-5.76-6.17-6-.11-.52.42-.94Zm-2.4,1.15-.84.73H93.46l-.73-.73v-.84l.21-.41.52-.53.53-.21.73.21.73.94Z"/><path class="cls-2" d="M145.79,59.06l.32-1.47L146,57l-.84-1.78L144,54.24,142.34,54l-1.15.32-1.36,1.25-.63,1.47v1.46l.63,1.26.83.73.74.32.62,1V76.43l.53,12,.21,11,.21.83.73.11,1.26-.94.94-1.16-1.15-32.55-.53-3V61.05Zm-1.67-1-.63.63-.84.42-.83-.1L141,58l.21-1,1.15-.83,1.15.21.73.83Z"/><path class="cls-2" d="M118.58,59.16l.52-1.36V56.44l-.21-.84-.52-.83-1.05-1.05L115.86,53h-1.15l-1,.21-.84.41-1.25,1.47-.32,1.26.11,1.25.42,1,.73,1,1.26,1.16-.11,5.75L114,73l.21,21.66-.32.42h-.63l-1-.73-8.69-7.75-.21-.52-.21-5.86-.31-.73L89.49,67.32l-.74-.94.11-1.88-.21-.84-.53-1-.73-.74-1.57-.83-1.15-.11-1.36.21-1.15.63-.73.73-.63,1.78.1,1.78.53,1.25.73.74,1.46.73,2,.21.63.31,13,12,.21.52v5.65l.42.74,3.45,2.93,7.85,7.53,1,.11,1.36-.73h.52l.21.2.63,9.74v6l-.1,0a35.11,35.11,0,0,1-1.28,13l2.84-2.12,2.31-2.09-.11-10.68-1.26-30.67L117.12,67l-.32-5.86.11-.42ZM86,65.55l-.94.73-.84-.11-.63-.73.11-.94.42-.52.63-.32.73.11.73.94Zm30.46-7.85-.32.31-.94.31-.94-.21-.52-.73.21-.94.73-.73,1.05-.21.83.73.11.94Z"/><path class="cls-2" d="M150,62.41l-.63,1-1.57,1.68-.21.52v2l.42.84.73-.21,3.88-3.67.52-1-.21-2.31.1-3.76,1.47-1.26,1.05-2-.11-1.46-.63-1.15-.94-1.05-.73-.31-2-.11-1.15.42-.84.84-.63,1.15-.1,1.46.52,1.47L150.08,57l.21.63v2.2Zm1.05-10,.83-.42.63.1.84.74.1,1-.83,1-.42.21h-.74l-1-.84-.11-.84Z"/><polygon class="cls-2" points="132.71 110.13 133.02 110.66 133.55 110.55 136.48 108.25 136.9 107.62 136.48 91.4 136.06 83.76 135.85 71.51 135.01 57.7 135.01 54.56 135.54 51.31 136.16 49.43 136.79 48.07 137.94 46.39 140.14 44.4 141.19 43.78 142.86 43.15 145.48 42.73 148.72 42.73 152.28 43.15 156.47 44.4 159.71 46.5 162.43 49.43 164.42 52.88 164.95 53.3 168.71 53.2 171.02 53.41 173.53 53.93 176.67 55.18 178.55 56.44 182.22 59.79 182.63 59.79 184.41 58.22 184.31 57.59 182.42 55.5 178.66 52.57 175.52 50.68 173.95 50.06 170.6 49.32 165.57 49.22 161.07 44.3 158.56 42.31 155.42 40.53 151.76 39.28 148.72 38.86 145.58 38.86 142.55 39.38 140.66 40.01 138.57 41.05 136.16 42.83 134.59 44.4 133.34 46.18 132.08 48.8 131.45 50.89 131.04 53.93 131.98 79.26 132.71 110.13"/><polygon class="cls-2" points="35.48 118.82 35.9 119.76 36.42 119.55 36.63 118.92 37.26 115.05 38.62 110.34 39.77 107.41 41.55 104.17 44.27 100.5 46.37 98.31 50.13 94.95 52.02 93.59 54.21 92.34 55.05 91.29 54.63 89.72 54.21 86.37 54.42 81.77 54.95 79.47 55.89 76.95 57.04 75.07 58.61 73.29 61.33 70.88 64.05 69.31 67.92 67.85 72.01 67.01 72.74 66.07 74.31 62.09 76.61 58.01 79.54 54.77 82.26 52.67 85.4 51.31 87.92 50.58 92.21 50.16 94.72 50.37 95.35 49.95 96.6 48.17 98.69 46.08 100.89 44.51 102.04 43.88 103.61 43.36 107.7 42.63 110.63 42.73 113.24 43.36 116.28 44.93 119.1 47.65 120.57 50.27 121.09 51.84 121.51 54.87 121.83 60.31 121.93 69.1 122.35 79.67 122.56 91.82 122.98 99.56 123.39 118.61 124.23 118.61 127.79 115.57 128.21 115.05 128.1 106.57 127.48 93.7 126.85 72.45 126.74 60.1 126.43 53.93 125.91 50.68 124.86 47.75 123.5 45.35 121.83 43.25 119.84 41.26 117.74 39.8 115.02 38.44 113.45 37.91 110.63 37.5 107.91 37.5 105.29 37.81 102.99 38.44 100.27 39.69 98.28 41.05 95.97 43.15 92.73 46.81 88.44 46.92 85.72 47.34 82.79 48.28 79.65 49.85 77.24 51.63 74.1 54.98 72.53 57.38 70.75 61.26 70.33 62.93 69.91 63.45 69.5 63.66 67.72 63.66 65.1 64.19 62.69 64.92 60.18 66.28 56.94 68.79 55.05 70.78 53.38 73.29 52.12 75.91 51.28 78.42 50.66 82.61 50.66 85.64 51.28 88.89 51.18 89.62 46.37 93.28 42.49 97.36 39.56 101.55 37.15 106.05 35.69 110.34 35.17 113.69 35.27 117.56 35.48 118.82"/><polygon class="cls-3" points="162.73 140.54 163.72 140.53 162.73 140.53 162.73 140.54"/><polygon class="cls-3" points="163.72 140.53 162.73 140.54 162.73 140.53 161.31 140.53 179.61 121.69 179.61 122.71 180.63 122.71 180.63 107.05 180.53 107.05 176.76 110.5 166.5 120.65 152.06 133.63 142.74 141.27 135.52 146.72 134.89 147.34 134.69 147.87 134.89 165.24 135.42 165.24 156.98 165.24 157.4 165.24 157.29 153.31 157.21 152.24 161.79 152.24 179.61 152.05 179.61 140.53 163.72 140.53"/><polygon class="cls-3" points="180.63 107.05 180.63 122.77 179.61 122.77 179.61 140.53 179.61 152.01 179.61 169.95 180.63 169.95 194.89 169.95 194.89 122.77 194.89 107.05 180.63 107.05"/><rect class="cls-4" x="199.98" y="82.99" width="2.95" height="111"/><rect class="cls-5" x="199.98" y="82.99" width="2.95" height="111"/><rect class="cls-6" x="199.98" y="82.99" width="2.95" height="111"/><polygon class="cls-7" points="221.87 174.13 202.93 193.99 202.93 82.99 221.87 82.99 221.87 174.13"/><polygon class="cls-8" points="221.87 174.13 202.93 193.99 202.93 82.99 221.87 82.99 221.87 174.13"/><polygon class="cls-8" points="221.87 174.13 202.93 193.99 202.93 82.99 221.87 82.99 221.87 174.13"/><polygon class="cls-8" points="221.87 174.13 202.93 193.99 202.93 82.99 221.87 82.99 221.87 174.13"/><polygon class="cls-9" points="221.87 174.13 202.93 193.99 202.93 82.99 221.87 82.99 221.87 174.13"/><path class="cls-10" d="M189.36,48c.29.23.43.35.58.45,2.51,1.71,5,3.43,7.53,5.12.39.27.54.44.19.91q-.85,1.11-1.77,2.34l10.5,11L204.71,70c2-2.19,4.43-4.74,6-6.48.45-.48.77-.57,1.34-.15,1.43,1.07,2.91,2,4.37,3.06L219,68.19c1.37-12.27,2.72-24.38,4.08-36.66Z"/><path class="cls-10" d="M195.89,56.78l-.07-.07C158.37,103,83.09,182.19,18.84,174.14,13,173.51,5.44,170.69,0,168.7c1.93,2.18,9.37,5.09,12,6.59,34,14.94,72.68,2.08,101.2-18.84,33.53-23.62,66.61-53.71,91.47-86.41l1.68-2.23Z"/><path class="cls-10" d="M226.78,44.24l-2.5,22.43A109.94,109.94,0,0,1,40.53,187.35a84.27,84.27,0,0,1-19.71-2.86,126,126,0,0,0,21.86,29.33A125.26,125.26,0,0,0,226.78,44.24Z"/><path class="cls-10" d="M18.93,168.57l.1,0a70.31,70.31,0,0,0,11.35.47A109.93,109.93,0,0,1,197.49,37.52L212.7,30.1A125.34,125.34,0,0,0,13.23,167.41,37.47,37.47,0,0,0,18.93,168.57Z"/><rect class="cls-10" x="174.36" y="162.42" width="0.57" height="3.16"/><rect class="cls-10" x="174.36" y="168.53" width="0.57" height="3.16"/><rect class="cls-10" x="174.36" y="193.48" width="0.57" height="3.16"/><rect class="cls-10" x="174.36" y="187.36" width="0.57" height="3.16"/><rect class="cls-10" x="174.36" y="181.06" width="0.57" height="3.16"/><rect class="cls-10" x="166.54" y="162.42" width="0.57" height="3.16" transform="translate(333.64 328.01) rotate(-180)"/><rect class="cls-10" x="166.54" y="168.53" width="0.57" height="3.16" transform="translate(333.64 340.22) rotate(-180)"/><rect class="cls-10" x="159.97" y="162.42" width="0.57" height="3.16" transform="translate(320.5 328.01) rotate(-180)"/><rect class="cls-10" x="159.97" y="168.53" width="0.57" height="3.16" transform="translate(320.5 340.22) rotate(-180)"/><rect class="cls-10" x="166.54" y="193.48" width="0.57" height="3.16" transform="translate(333.64 390.13) rotate(-180)"/><rect class="cls-10" x="166.54" y="187.36" width="0.57" height="3.16" transform="translate(333.64 377.87) rotate(-180)"/><rect class="cls-10" x="166.54" y="181.06" width="0.57" height="3.16" transform="translate(333.64 365.29) rotate(-180)"/><path class="cls-10" d="M174.65,199.35c-.59,0-1,.67-1,1.58s.42,1.59,1,1.59,1-.67,1-1.59S175.23,199.35,174.65,199.35Zm0,2.73c-.17,0-.47-.43-.47-1.15s.3-1.14.47-1.14.47.43.47,1.14S174.81,202.08,174.65,202.08Z"/><path class="cls-10" d="M174.65,174.77c-.59,0-1,.67-1,1.58s.42,1.59,1,1.59,1-.67,1-1.59S175.23,174.77,174.65,174.77Zm0,2.73c-.17,0-.47-.43-.47-1.15s.3-1.14.47-1.14.47.43.47,1.14S174.81,177.5,174.65,177.5Z"/><path class="cls-10" d="M187.32,174.77c-.59,0-1,.67-1,1.58s.42,1.59,1,1.59,1-.67,1-1.59S187.9,174.77,187.32,174.77Zm0,2.73c-.17,0-.47-.43-.47-1.15s.3-1.14.47-1.14.47.43.47,1.14S187.48,177.5,187.32,177.5Z"/><path class="cls-10" d="M181,174.77c-.58,0-1,.67-1,1.58s.43,1.59,1,1.59,1-.67,1-1.59S181.57,174.77,181,174.77Zm0,2.73c-.16,0-.47-.43-.47-1.15s.31-1.14.47-1.14.47.43.47,1.14S181.15,177.5,181,177.5Z"/><path class="cls-10" d="M193.65,177.94c.59,0,1-.67,1-1.59s-.42-1.58-1-1.58-1,.67-1,1.58S193.07,177.94,193.65,177.94Zm0-2.73c.17,0,.47.43.47,1.14s-.3,1.15-.47,1.15-.47-.43-.47-1.15S193.49,175.21,193.65,175.21Z"/><path class="cls-10" d="M187.32,181.06c-.59,0-1,.67-1,1.59s.42,1.58,1,1.58,1-.67,1-1.58S187.9,181.06,187.32,181.06Zm0,2.73c-.17,0-.47-.43-.47-1.14s.3-1.15.47-1.15.47.43.47,1.15S187.48,183.79,187.32,183.79Z"/><path class="cls-10" d="M181,181.06c-.58,0-1,.67-1,1.59s.43,1.58,1,1.58,1-.67,1-1.58S181.57,181.06,181,181.06Zm0,2.73c-.16,0-.47-.43-.47-1.14s.31-1.15.47-1.15.47.43.47,1.15S181.15,183.79,181,183.79Z"/><path class="cls-10" d="M193.65,181.06c-.58,0-1,.67-1,1.59s.43,1.58,1,1.58,1-.67,1-1.58S194.24,181.06,193.65,181.06Zm0,2.73c-.16,0-.47-.43-.47-1.14s.31-1.15.47-1.15.47.43.47,1.15S193.82,183.79,193.65,183.79Z"/><path class="cls-10" d="M187.32,187.36c-.59,0-1,.66-1,1.58s.42,1.58,1,1.58,1-.67,1-1.58S187.9,187.36,187.32,187.36Zm0,2.73c-.17,0-.47-.44-.47-1.15s.3-1.15.47-1.15.47.44.47,1.15S187.48,190.09,187.32,190.09Z"/><path class="cls-10" d="M181,187.36c-.58,0-1,.66-1,1.58s.43,1.58,1,1.58,1-.67,1-1.58S181.57,187.36,181,187.36Zm0,2.73c-.16,0-.47-.44-.47-1.15s.31-1.15.47-1.15.47.44.47,1.15S181.15,190.09,181,190.09Z"/><path class="cls-10" d="M193.65,187.36c-.58,0-1,.66-1,1.58s.43,1.58,1,1.58,1-.67,1-1.58S194.24,187.36,193.65,187.36Zm0,2.73c-.16,0-.47-.44-.47-1.15s.31-1.15.47-1.15.47.44.47,1.15S193.82,190.09,193.65,190.09Z"/><path class="cls-10" d="M187.32,193.48c-.59,0-1,.67-1,1.58s.42,1.59,1,1.59,1-.67,1-1.59S187.9,193.48,187.32,193.48Zm0,2.73c-.17,0-.47-.43-.47-1.15s.3-1.14.47-1.14.47.43.47,1.14S187.48,196.21,187.32,196.21Z"/><path class="cls-10" d="M181,193.48c-.58,0-1,.67-1,1.58s.43,1.59,1,1.59,1-.67,1-1.59S181.57,193.48,181,193.48Zm0,2.73c-.16,0-.47-.43-.47-1.15s.31-1.14.47-1.14.47.43.47,1.14S181.15,196.21,181,196.21Z"/><path class="cls-10" d="M187.32,199.35c-.59,0-1,.67-1,1.58s.42,1.59,1,1.59,1-.67,1-1.59S187.9,199.35,187.32,199.35Zm0,2.73c-.17,0-.47-.43-.47-1.15s.3-1.14.47-1.14.47.43.47,1.14S187.48,202.08,187.32,202.08Z"/><path class="cls-10" d="M181,199.35c-.58,0-1,.67-1,1.58s.43,1.59,1,1.59,1-.67,1-1.59S181.57,199.35,181,199.35Zm0,2.73c-.16,0-.47-.43-.47-1.15s.31-1.14.47-1.14.47.43.47,1.14S181.15,202.08,181,202.08Z"/><path class="cls-10" d="M174.65,205.59c-.59,0-1,.66-1,1.58s.42,1.58,1,1.58,1-.66,1-1.58S175.23,205.59,174.65,205.59Zm0,2.73c-.17,0-.47-.44-.47-1.15s.3-1.15.47-1.15.47.44.47,1.15S174.81,208.32,174.65,208.32Z"/><path class="cls-10" d="M181,205.59c-.58,0-1,.66-1,1.58s.43,1.58,1,1.58,1-.66,1-1.58S181.57,205.59,181,205.59Zm0,2.73c-.16,0-.47-.44-.47-1.15s.31-1.15.47-1.15.47.44.47,1.15S181.15,208.32,181,208.32Z"/><path class="cls-10" d="M193.65,193.48c-.58,0-1,.67-1,1.58s.43,1.59,1,1.59,1-.67,1-1.59S194.24,193.48,193.65,193.48Zm0,2.73c-.16,0-.47-.43-.47-1.15s.31-1.14.47-1.14.47.43.47,1.14S193.82,196.21,193.65,196.21Z"/><path class="cls-10" d="M166.82,199.35c-.59,0-1,.67-1,1.58s.42,1.59,1,1.59,1-.67,1-1.59S167.4,199.35,166.82,199.35Zm0,2.73c-.17,0-.47-.43-.47-1.15s.3-1.14.47-1.14.47.43.47,1.14S167,202.08,166.82,202.08Z"/><path class="cls-10" d="M166.82,174.77c-.59,0-1,.67-1,1.58s.42,1.59,1,1.59,1-.67,1-1.59S167.4,174.77,166.82,174.77Zm0,2.73c-.17,0-.47-.43-.47-1.15s.3-1.14.47-1.14.47.43.47,1.14S167,177.5,166.82,177.5Z"/><path class="cls-10" d="M154.15,174.77c-.59,0-1,.67-1,1.58s.42,1.59,1,1.59,1-.67,1-1.59S154.73,174.77,154.15,174.77Zm0,2.73c-.17,0-.47-.43-.47-1.15s.3-1.14.47-1.14.47.43.47,1.14S154.32,177.5,154.15,177.5Z"/><path class="cls-10" d="M160.48,174.77c-.58,0-1,.67-1,1.58s.43,1.59,1,1.59,1-.67,1-1.59S161.07,174.77,160.48,174.77Zm0,2.73c-.16,0-.47-.43-.47-1.15s.31-1.14.47-1.14.48.43.48,1.14S160.65,177.5,160.48,177.5Z"/><path class="cls-10" d="M147.81,174.77c-.58,0-1,.67-1,1.58s.42,1.59,1,1.59,1-.67,1-1.59S148.4,174.77,147.81,174.77Zm0,2.73c-.16,0-.47-.43-.47-1.15s.31-1.14.47-1.14.48.43.48,1.14S148,177.5,147.81,177.5Z"/><path class="cls-10" d="M154.15,168.53c-.59,0-1,.67-1,1.58s.42,1.58,1,1.58,1-.66,1-1.58S154.73,168.53,154.15,168.53Zm0,2.73c-.17,0-.47-.44-.47-1.15s.3-1.15.47-1.15.47.44.47,1.15S154.32,171.26,154.15,171.26Z"/><path class="cls-10" d="M147.81,168.53c-.58,0-1,.67-1,1.58s.42,1.58,1,1.58,1-.66,1-1.58S148.4,168.53,147.81,168.53Zm0,2.73c-.16,0-.47-.44-.47-1.15s.31-1.15.47-1.15.48.44.48,1.15S148,171.26,147.81,171.26Z"/><path class="cls-10" d="M142.53,171.69c.58,0,1-.66,1-1.58s-.43-1.58-1-1.58-1,.67-1,1.58S141.94,171.69,142.53,171.69Zm0-2.73c.16,0,.47.44.47,1.15s-.31,1.15-.47,1.15-.47-.44-.47-1.15S142.36,169,142.53,169Z"/><path class="cls-10" d="M136.19,168.53c-.58,0-1,.67-1,1.58s.43,1.58,1,1.58,1-.66,1-1.58S136.78,168.53,136.19,168.53Zm0,2.73c-.16,0-.47-.44-.47-1.15s.31-1.15.47-1.15.47.44.47,1.15S136.36,171.26,136.19,171.26Z"/><path class="cls-10" d="M142.53,177.94c.58,0,1-.67,1-1.59s-.43-1.58-1-1.58-1,.67-1,1.58S141.94,177.94,142.53,177.94Zm0-2.73c.16,0,.47.43.47,1.14s-.31,1.15-.47,1.15-.47-.43-.47-1.15S142.36,175.21,142.53,175.21Z"/><path class="cls-10" d="M136.19,174.77c-.58,0-1,.67-1,1.58s.43,1.59,1,1.59,1-.67,1-1.59S136.78,174.77,136.19,174.77Zm0,2.73c-.16,0-.47-.43-.47-1.15s.31-1.14.47-1.14.47.43.47,1.14S136.36,177.5,136.19,177.5Z"/><path class="cls-10" d="M142.53,184.23c.58,0,1-.67,1-1.58s-.43-1.59-1-1.59-1,.67-1,1.59S141.94,184.23,142.53,184.23Zm0-2.73c.16,0,.47.43.47,1.15s-.31,1.14-.47,1.14-.47-.43-.47-1.14S142.36,181.5,142.53,181.5Z"/><path class="cls-10" d="M136.19,181.06c-.58,0-1,.67-1,1.59s.43,1.58,1,1.58,1-.67,1-1.58S136.78,181.06,136.19,181.06Zm0,2.73c-.16,0-.47-.43-.47-1.14s.31-1.15.47-1.15.47.43.47,1.15S136.36,183.79,136.19,183.79Z"/><path class="cls-10" d="M142.53,190.52c.58,0,1-.67,1-1.58s-.43-1.58-1-1.58-1,.66-1,1.58S141.94,190.52,142.53,190.52Zm0-2.73c.16,0,.47.44.47,1.15s-.31,1.15-.47,1.15-.47-.44-.47-1.15S142.36,187.79,142.53,187.79Z"/><path class="cls-10" d="M136.19,187.36c-.58,0-1,.66-1,1.58s.43,1.58,1,1.58,1-.67,1-1.58S136.78,187.36,136.19,187.36Zm0,2.73c-.16,0-.47-.44-.47-1.15s.31-1.15.47-1.15.47.44.47,1.15S136.36,190.09,136.19,190.09Z"/><path class="cls-10" d="M154.15,181.06c-.59,0-1,.67-1,1.59s.42,1.58,1,1.58,1-.67,1-1.58S154.73,181.06,154.15,181.06Zm0,2.73c-.17,0-.47-.43-.47-1.14s.3-1.15.47-1.15.47.43.47,1.15S154.32,183.79,154.15,183.79Z"/><path class="cls-10" d="M160.48,181.06c-.58,0-1,.67-1,1.59s.43,1.58,1,1.58,1-.67,1-1.58S161.07,181.06,160.48,181.06Zm0,2.73c-.16,0-.47-.43-.47-1.14s.31-1.15.47-1.15.48.43.48,1.15S160.65,183.79,160.48,183.79Z"/><path class="cls-10" d="M147.81,181.06c-.58,0-1,.67-1,1.59s.42,1.58,1,1.58,1-.67,1-1.58S148.4,181.06,147.81,181.06Zm0,2.73c-.16,0-.47-.43-.47-1.14s.31-1.15.47-1.15.48.43.48,1.15S148,183.79,147.81,183.79Z"/><path class="cls-10" d="M154.15,187.36c-.59,0-1,.66-1,1.58s.42,1.58,1,1.58,1-.67,1-1.58S154.73,187.36,154.15,187.36Zm0,2.73c-.17,0-.47-.44-.47-1.15s.3-1.15.47-1.15.47.44.47,1.15S154.32,190.09,154.15,190.09Z"/><path class="cls-10" d="M160.48,187.36c-.58,0-1,.66-1,1.58s.43,1.58,1,1.58,1-.67,1-1.58S161.07,187.36,160.48,187.36Zm0,2.73c-.16,0-.47-.44-.47-1.15s.31-1.15.47-1.15.48.44.48,1.15S160.65,190.09,160.48,190.09Z"/><path class="cls-10" d="M147.81,187.36c-.58,0-1,.66-1,1.58s.42,1.58,1,1.58,1-.67,1-1.58S148.4,187.36,147.81,187.36Zm0,2.73c-.16,0-.47-.44-.47-1.15s.31-1.15.47-1.15.48.44.48,1.15S148,190.09,147.81,190.09Z"/><path class="cls-10" d="M154.15,193.48c-.59,0-1,.67-1,1.58s.42,1.59,1,1.59,1-.67,1-1.59S154.73,193.48,154.15,193.48Zm0,2.73c-.17,0-.47-.43-.47-1.15s.3-1.14.47-1.14.47.43.47,1.14S154.32,196.21,154.15,196.21Z"/><path class="cls-10" d="M160.48,193.48c-.58,0-1,.67-1,1.58s.43,1.59,1,1.59,1-.67,1-1.59S161.07,193.48,160.48,193.48Zm0,2.73c-.16,0-.47-.43-.47-1.15s.31-1.14.47-1.14.48.43.48,1.14S160.65,196.21,160.48,196.21Z"/><path class="cls-10" d="M154.15,199.35c-.59,0-1,.67-1,1.58s.42,1.59,1,1.59,1-.67,1-1.59S154.73,199.35,154.15,199.35Zm0,2.73c-.17,0-.47-.43-.47-1.15s.3-1.14.47-1.14.47.43.47,1.14S154.32,202.08,154.15,202.08Z"/><path class="cls-10" d="M154.15,205.59c-.59,0-1,.66-1,1.58s.42,1.58,1,1.58,1-.66,1-1.58S154.73,205.59,154.15,205.59Zm0,2.73c-.17,0-.47-.44-.47-1.15s.3-1.15.47-1.15.47.44.47,1.15S154.32,208.32,154.15,208.32Z"/><path class="cls-10" d="M160.48,199.35c-.58,0-1,.67-1,1.58s.43,1.59,1,1.59,1-.67,1-1.59S161.07,199.35,160.48,199.35Zm0,2.73c-.16,0-.47-.43-.47-1.15s.31-1.14.47-1.14.48.43.48,1.14S160.65,202.08,160.48,202.08Z"/><path class="cls-10" d="M166.82,205.59c-.59,0-1,.66-1,1.58s.42,1.58,1,1.58,1-.66,1-1.58S167.4,205.59,166.82,205.59Zm0,2.73c-.17,0-.47-.44-.47-1.15s.3-1.15.47-1.15.47.44.47,1.15S167,208.32,166.82,208.32Z"/><path class="cls-10" d="M160.48,205.59c-.58,0-1,.66-1,1.58s.43,1.58,1,1.58,1-.66,1-1.58S161.07,205.59,160.48,205.59Zm0,2.73c-.16,0-.47-.44-.47-1.15s.31-1.15.47-1.15.48.44.48,1.15S160.65,208.32,160.48,208.32Z"/><path class="cls-10" d="M147.81,193.48c-.58,0-1,.67-1,1.58s.42,1.59,1,1.59,1-.67,1-1.59S148.4,193.48,147.81,193.48Zm0,2.73c-.16,0-.47-.43-.47-1.15s.31-1.14.47-1.14.48.43.48,1.14S148,196.21,147.81,196.21Z"/><path class="cls-10" d="M147.81,199.35c-.58,0-1,.67-1,1.58s.42,1.59,1,1.59,1-.67,1-1.59S148.4,199.35,147.81,199.35Zm0,2.73c-.16,0-.47-.43-.47-1.15s.31-1.14.47-1.14.48.43.48,1.14S148,202.08,147.81,202.08Z"/><path class="cls-10" d="M142.76,193.48c-.58,0-1,.67-1,1.58s.43,1.59,1,1.59,1-.67,1-1.59S143.35,193.48,142.76,193.48Zm0,2.73c-.16,0-.47-.43-.47-1.15s.31-1.14.47-1.14.47.43.47,1.14S142.93,196.21,142.76,196.21Z"/><path class="cls-10" d="M42.89,274.46a7.47,7.47,0,0,1,.06,1v1q0,6.85-5.13,13.25l-1.55,1.84c-.81.81-1.45,1.43-1.93,1.88s-1.55,1.27-3.2,2.5a22.62,22.62,0,0,1-5.27,2.94,16.38,16.38,0,0,1-6,1.09q-7.1,0-9.57-3.22t-2.74-3.6c-.17-.25-.54-.85-1.09-1.79a13.15,13.15,0,0,1-1.36-4.12,24.88,24.88,0,0,1-.51-4.44,11.8,11.8,0,0,1,1.35-5.33,19.56,19.56,0,0,1,3.14-4.58A29.17,29.17,0,0,1,13.68,269l.81-.46,1.15.81a12.63,12.63,0,0,0-2.59,7.89,14,14,0,0,0,1,5.68,31,31,0,0,0,1.62,3.28c.38.64,1,1.51,1.81,2.62a13.51,13.51,0,0,0,3,2.94,13.14,13.14,0,0,0,3.23,1.79,8.2,8.2,0,0,0,2.79.52,6.85,6.85,0,0,0,4.09-1.27A8.08,8.08,0,0,0,33.39,289a16.89,16.89,0,0,0,1-6.16q0-1-.06-1.56c0-.38-.14-1.17-.29-2.36a18.07,18.07,0,0,0-.72-3.31,22.1,22.1,0,0,0-1.76-3.81,18,18,0,0,0-3.28-4.2A12.2,12.2,0,0,0,24.4,265a21.51,21.51,0,0,0-2.71-.92,8.35,8.35,0,0,0-2-.21,16,16,0,0,0-2.48.21c-.88.13-1.67.25-2.36.37l-.92.17-.75-1.15,2.3-1.33a20.45,20.45,0,0,1,1.85-1c.69-.35,1.89-.92,3.6-1.73a12.19,12.19,0,0,1,5.27-1.21,20.23,20.23,0,0,1,3.52.4q2.19.4,7.2,3.43T42.89,274.46Z"/><path class="cls-10" d="M74.24,278a18.89,18.89,0,0,1,.81,5,9.7,9.7,0,0,1-1.93,6,18.34,18.34,0,0,1-5.31,4.58A37,37,0,0,1,61,296.81l-.81-1.09,1.1-.64a17.08,17.08,0,0,0,4.49-3.63,6.25,6.25,0,0,0,1.38-4,11.16,11.16,0,0,0-.25-2.22,33.8,33.8,0,0,0-1.26-4,6.77,6.77,0,0,0-2.45-3.63,4.94,4.94,0,0,0-2.42-.9,3.48,3.48,0,0,0-2.39,1A4.32,4.32,0,0,0,57,280.16a22.45,22.45,0,0,0-.29,4V298L57,309a35.15,35.15,0,0,0-3.8.95,30.2,30.2,0,0,0-3.92,1.53l-.17-12.91v-2.88q0-9.33-.18-11.44a22.62,22.62,0,0,0-.81-4.38c-.43-1.51-1.09-2.27-2-2.27a4.2,4.2,0,0,0-2,.75l-.34.28-.59-1.32L53,270.71a1.49,1.49,0,0,1,1-.29,1.75,1.75,0,0,1,1.81,1.1,5.25,5.25,0,0,1,.43,1.9l.18,1.73v1.73l2.19-1.62q6.57-4.83,8.93-4.84,1.78,0,3.8,2.37l.69.8A15.51,15.51,0,0,1,74.24,278Z"/><path class="cls-10" d="M98.15,271q-1.92,1.67-3.5,3.23a42.89,42.89,0,0,0-3.09,3.4h-2.4v10.75l.36,2.2a5.82,5.82,0,0,0,.74,2.46,2,2,0,0,0,1.23.89,5.44,5.44,0,0,0,1,.18,2.93,2.93,0,0,0,1-.23l.59,1.15-2.13,1.55a16.19,16.19,0,0,1-1.79,1.1l-.34.23-1.67.92A7.36,7.36,0,0,1,85,299.92c-1.27,0-2.19-.91-2.74-2.75a21.31,21.31,0,0,1-1-5.38q-.12-2.64-.12-9.53l.23-4.63H79.66c-.46,0-1.19,0-2.19.11s-1.77.12-2.31.12l3.17-4.13.87-1.16.8-1.17,1.79.23.17-3.17,2.31-1.55,2.3-1.5,1.67-1.1,1.67-1.09-.4,8.18h3.63c.65,0,1.4,0,2.25-.11Z"/><path class="cls-10" d="M107.14,294.38a64.77,64.77,0,0,0-8.07,5.47v-9.61l-.51-8.35c0-3-.79-4.55-2.37-4.55a5,5,0,0,0-1.61.34l-.52.23-.81-1.15L96.42,275c1.19-.8,2.4-1.64,3.63-2.5s2.08-1.45,2.54-1.76a2.24,2.24,0,0,1,1.21-.46,8.41,8.41,0,0,1,1,.17,1.88,1.88,0,0,1,1.27,1.15,9.19,9.19,0,0,1,.46,3.46l.4,9Zm.81-30.64-5,3.86a3.22,3.22,0,0,1-2.13.63,5.62,5.62,0,0,1-1.32-.17,3.49,3.49,0,0,1-1.39-.69,7.18,7.18,0,0,1-1.38-1.73l-.35-.75q2.31-2,4.9-3.86l1.85-1.15.8.86a12.7,12.7,0,0,0,2,2.08A6.23,6.23,0,0,0,108,263.74Z"/><path class="cls-10" d="M163.78,295a70.92,70.92,0,0,0-6.05,4.05l-.57.46-.52.46-.35-3.45q-.69-5.94-1.21-8.88a29.62,29.62,0,0,0-1.29-5c-.52-1.4-1.36-2.1-2.51-2.1a4.09,4.09,0,0,0-2.25.83,16.82,16.82,0,0,0-2.56,2.28,54,54,0,0,0-3.52,4.32,71.52,71.52,0,0,0-4.92,7.84l-1,1.9-1.1-.23a28.75,28.75,0,0,0-.17-3.43c-.11-1-.33-2.37-.63-4.18l-.12-.92-.34-1.9-.12-.63-.46-2.25a4.82,4.82,0,0,0-1.09-2.22,2.34,2.34,0,0,0-1.73-.78,3,3,0,0,0-1.79.58l-1.27.92a39.5,39.5,0,0,0-3.43,3.4,60.63,60.63,0,0,0-3.94,5.5,53.64,53.64,0,0,0-4.56,8.44h-1.67l.06-2.88v-8.75a36.91,36.91,0,0,0-.4-6.86,6.65,6.65,0,0,0-1.33-2.83,2.47,2.47,0,0,0-1.67-1.09,1.29,1.29,0,0,0-1.09.75l-1-1.27,3.63-2.42,4-2.88.47-.35a2.43,2.43,0,0,1,1.32-.51,1.83,1.83,0,0,1,2.1,1,12.57,12.57,0,0,1,1.18,4.72l.06.69.58,6.23.11,1.49q2.72-3.51,5.13-6.08c1.62-1.7,3.84-3.85,6.69-6.42l.17-.17.75-.75a2.83,2.83,0,0,1,2-1,2.64,2.64,0,0,1,2.36,1.55,17.44,17.44,0,0,1,1.5,4.33,56.76,56.76,0,0,1,1,7.2l.12,1.67q3.17-4.12,6-7.2c1.88-2,3.21-3.45,4-4.18a33.76,33.76,0,0,1,2.59-2.24,4.5,4.5,0,0,1,2.71-1.13c1.3,0,2.12.44,2.45,1.33s.56,1.65.72,2.28.42,2,.8,4l1,5.79.23,1.5.12.87.29,2.66.34,3.59Z"/><path class="cls-10" d="M200.09,295.08l-7,4.84c-.27-.81-.5-1.45-.69-1.91s-.63-1.43-1.32-2.88a17.19,17.19,0,0,0-2.68-4,10.49,10.49,0,0,0-3.43-2.65,17.62,17.62,0,0,0-2.82-1.07A20.42,20.42,0,0,0,180,287a14.85,14.85,0,0,0-1.7-.14,10.36,10.36,0,0,0-1.82.17,2.64,2.64,0,0,0-1.58.8,2.09,2.09,0,0,0-.58,1.44,5.14,5.14,0,0,0,.29,1.1,4.51,4.51,0,0,0,1.84,1.93,6.88,6.88,0,0,0,2.83,1.24c.84.11,1.38.17,1.61.17h.75a9.31,9.31,0,0,0,4.15-.86l.69.8-.12.12-2.7,2.53a18.33,18.33,0,0,1-3.66,2.83,6.87,6.87,0,0,1-3.26.8h-1.32a10.43,10.43,0,0,1-5.59-2,4.81,4.81,0,0,1-2-3.81,8.39,8.39,0,0,1,1.24-3.58c.82-1.54,2.62-3.18,5.38-4.91a21.75,21.75,0,0,1,5-2l.75-.12,1.15-.29,2-.46-.69-1.15a14.32,14.32,0,0,0-3.12-3.64,4.85,4.85,0,0,0-2.93-1.22,3.77,3.77,0,0,0-2,.58l-.46-.63,3.92-3.29a25.14,25.14,0,0,1,2.85-2.1,4.12,4.12,0,0,1,2-.72c1.19,0,2.66,1.13,4.38,3.4s3,4,3.78,5.14,1.61,2.44,2.48,3.84,1.7,2.87,2.5,4.39,1.9,3.65,3.29,6.38Z"/><path class="cls-3" d="M243.53,294.57q-2.13,1.67-4.58,3.34c-1.63,1.11-2.85,1.63-3.66,1.55a2.86,2.86,0,0,1-2.36-1.16,45.75,45.75,0,0,1-2.77-4.25l-1.61-2.68L227.28,289H210.51l-.34,1.39a10.72,10.72,0,0,0-.4,1.21,10.26,10.26,0,0,0-.29,1.5l-.29,2.43-6.28,2.78a19.77,19.77,0,0,1-2,.75c-.81.27-1.54.52-2.19.76.65-1,1.34-2,2.07-3.23a52.16,52.16,0,0,0,2.83-5.67c1.15-2.6,2.23-5,3.22-7.32s2.11-4.76,3.32-7.43a55.6,55.6,0,0,0,2.62-6.71l1.79-5.07,1.09-3.28,1.3-.58a18.93,18.93,0,0,0,1.87-1c.65-.38,1.29-.73,1.9-1l1.9-.92a1.4,1.4,0,0,1,1.16.06,2,2,0,0,1,1,1.27l.64,2.19c.11.42.29,1,.54,1.76s.93,2.42,2,5,2.33,5.54,3.72,8.84,2.29,5.4,2.73,6.28,1.09,2.11,1.94,3.66A45.22,45.22,0,0,0,239.1,291c.92,1.35,1.7,2.08,2.36,2.19l1.61.29Zm-18.78-11-6.23-14.69-6,14.75,5.19.11Z"/><path class="cls-3" d="M256.5,294.32l-1.88,1.27-1.82,1.21-4.37,3.05.06-11.57q-.24-10.42-.23-12.62c0-2.26,0-3.9-.15-4.89s-.2-1.91-.31-2.74a17.23,17.23,0,0,0-.35-1.9,4.31,4.31,0,0,0-.55-1.24,1.26,1.26,0,0,0-1.12-.58,1.61,1.61,0,0,0-1.27.64l-.81-1,.35-.29,6.92-4.55,1.75-1a3.18,3.18,0,0,1,1.45-.4c1.05,0,1.69.62,1.92,1.84l.12,1v4.09l.29,23.67Z"/></g></g></svg>